<svg width="69" height="61" viewBox="0 0 69 61" fill="none" xmlns="http://www.w3.org/2000/svg">
<g clip-path="url(#clip0)">
<path d="M68.2232 52.4234C70.4343 56.2352 67.6588 61 63.2426 61H5.75626C1.33151 61 -1.43112 56.2278 0.775681 52.4234L29.5192 2.85759C31.7314 -0.955984 37.2721 -0.949074 39.4804 2.85759L68.2232 52.4234V52.4234ZM34.4998 42.1758C31.4565 42.1758 28.9894 44.6295 28.9894 47.6562C28.9894 50.683 31.4565 53.1367 34.4998 53.1367C37.5431 53.1367 40.0102 50.683 40.0102 47.6562C40.0102 44.6295 37.5431 42.1758 34.4998 42.1758ZM29.2681 22.4764L30.1567 38.6795C30.1983 39.4377 30.8287 40.0312 31.5921 40.0312H37.4075C38.1709 40.0312 38.8013 39.4377 38.8428 38.6795L39.7315 22.4764C39.7764 21.6574 39.1208 20.9688 38.2961 20.9688H30.7034C29.8787 20.9688 29.2232 21.6574 29.2681 22.4764V22.4764Z" fill="#455A64"/>
</g>
<defs>
<clipPath id="clip0">
<rect width="69" height="61" fill="white"/>
</clipPath>
</defs>
</svg>
