<svg width="269" height="302" viewBox="0 0 269 302" fill="none" xmlns="http://www.w3.org/2000/svg">
<g opacity="0.3">
<path d="M46.3359 183.56C51.1396 189.115 54.5091 195.761 56.1494 202.919C53.9192 199.93 47.2281 199.93 36.4333 204.77C27.5119 208.718 19.0142 212.8 12.97 215.812L10.4275 217.104L7.86255 212.153L10.4052 210.86C16.4271 207.76 24.7239 203.343 33.1993 198.481C43.5481 192.415 47.3843 187.173 46.3359 183.56Z" fill="#64CF83"/>
<path opacity="0.2" d="M11.0297 210.457C11.5867 211.225 12.0791 212.039 12.5017 212.889C12.9241 213.733 13.2892 214.606 13.5945 215.499L10.4275 217.104L7.86255 212.153L11.0297 210.457Z" fill="black"/>
<path d="M1.88556 207.468C1.39203 207.724 0.958601 208.082 0.614255 208.517C0.52778 208.604 0.45287 208.702 0.391264 208.808V208.918C0.29614 209.09 0.214076 209.27 0.145901 209.454C0.136315 209.543 0.136315 209.634 0.145901 209.722C0.095674 209.866 0.0583853 210.016 0.0344094 210.167C-0.153478 213.025 0.430574 215.881 1.72548 218.436C3.02038 220.991 4.97845 223.149 7.39451 224.688L7.81828 224.843H8.10825H8.66582H9.17884C9.73522 224.816 10.2808 224.68 10.7847 224.442C11.2618 224.182 11.6855 223.834 12.0337 223.416C13.5503 221.765 13.238 217.596 11.1192 213.447C9.0004 209.299 5.85561 206.577 3.60298 206.755C2.98113 206.851 2.39171 207.095 1.88556 207.468Z" fill="#64CF83"/>
<path opacity="0.3" d="M2.39868 211.485C3.75919 210.792 6.05647 212.554 7.50619 215.41C8.95592 218.264 9.02276 221.164 7.66226 221.854C6.83703 222.278 5.63269 221.854 4.49522 220.628C6.05645 221.542 7.39464 220.628 7.19391 218.533C6.77953 216.364 5.74078 214.363 4.20526 212.777C3.1793 211.929 2.28717 211.596 1.64038 212.442C1.76308 212.039 2.03395 211.697 2.39868 211.485Z" fill="black"/>
<path d="M66.7891 216.949C73.3265 220.222 79.0669 224.889 83.606 230.62C80.3497 228.769 77.3387 227.832 70.2239 235.705C64.358 242.106 63.7781 242.398 59.942 247.036C59.3621 247.727 58.8268 248.375 58.3362 248.999L53.8755 245.452L55.6375 243.378C59.4067 238.673 59.6967 238.16 64.7595 231.112C70.8929 222.548 69.3317 219.737 66.7891 216.949Z" fill="#64CF83"/>
<path opacity="0.2" d="M56.1944 242.685C56.9808 243.158 57.7267 243.695 58.4247 244.291C59.1683 244.888 59.862 245.544 60.4988 246.254L58.2686 248.996L53.808 245.452L56.1944 242.685Z" fill="black"/>
<path d="M44.5967 243.378C44.1848 243.897 43.8882 244.499 43.7268 245.14C43.7141 245.282 43.7141 245.424 43.7268 245.564C43.7268 245.564 43.7268 245.676 43.7268 245.742C43.7154 245.965 43.7154 246.189 43.7268 246.412C43.7364 246.531 43.7364 246.65 43.7268 246.768C43.7268 246.925 43.7268 247.103 43.7268 247.303C44.901 250.489 46.9095 253.299 49.5423 255.442C52.1752 257.584 55.3355 258.979 58.6924 259.481H59.607C59.835 259.443 60.0589 259.384 60.276 259.303H60.4545L60.8336 259.125C61.4269 258.839 61.9518 258.428 62.3725 257.921C62.7768 257.425 63.0663 256.846 63.22 256.225C64.0675 253.683 61.7258 249.334 57.4435 245.854C53.1612 242.375 48.4107 240.948 46.1134 242.309C45.542 242.56 45.0265 242.926 44.5967 243.378Z" fill="#64CF83"/>
<path opacity="0.3" d="M47.0952 247.392C48.255 245.985 51.5559 246.79 54.5444 249.197C57.5331 251.606 59.0052 254.684 57.823 256.09C57.1093 256.959 55.5927 257.004 53.7862 256.312C56.0165 256.535 56.8864 254.841 55.7042 252.721C54.21 250.567 52.116 248.9 49.6822 247.927C48.1657 247.503 47.0282 247.569 46.7382 248.796C46.6712 248.3 46.7992 247.797 47.0952 247.392Z" fill="black"/>
<path d="M101.092 239.186C107.239 239.583 113.245 241.205 118.756 243.959C115.611 243.601 112.065 246.769 109.544 254.531C108.531 256.819 107.674 259.174 106.98 261.579C106.801 262.247 106.623 262.872 106.467 263.474L101.872 262.225L102.385 260.351C103.001 257.917 103.448 255.443 103.723 252.947C105.351 244.941 103.969 240.435 101.092 239.186Z" fill="#64CF83"/>
<path opacity="0.2" d="M102.651 259.325C103.443 259.421 104.226 259.578 104.993 259.794C105.758 259.989 106.504 260.25 107.224 260.574C106.934 261.6 106.666 262.559 106.421 263.473L101.826 262.224C102.116 261.333 102.473 260.373 102.651 259.325Z" fill="black"/>
<path d="M95.604 263.451C95.5042 263.907 95.5042 264.378 95.604 264.835V265.147C95.604 265.147 95.604 265.147 95.604 265.259C95.6528 265.421 95.7202 265.578 95.8048 265.726C95.8334 265.798 95.8708 265.864 95.9163 265.927L96.1169 266.239C97.8057 267.963 99.9249 269.203 102.255 269.829C104.584 270.458 107.039 270.45 109.365 269.808L109.7 269.629L109.923 269.517L110.302 269.227L110.503 269.004C110.805 268.648 111.025 268.228 111.15 267.778C111.249 267.331 111.249 266.865 111.15 266.417C110.971 264.545 108.183 262.38 104.458 261.354C100.734 260.328 97.1652 260.798 96.0724 262.336C95.8377 262.669 95.678 263.05 95.604 263.451Z" fill="#64CF83"/>
<path opacity="0.3" d="M98.4148 265.324C98.7495 264.075 101.158 263.628 103.768 264.342C106.377 265.057 108.228 266.573 107.894 267.866C107.693 268.648 106.689 269.115 105.329 269.183C106.801 268.714 106.935 267.332 105.53 266.304C103.941 265.337 102.103 264.857 100.244 264.923C99.1286 265.078 98.4148 265.458 98.571 266.35C98.3921 266.04 98.3363 265.674 98.4148 265.324Z" fill="black"/>
<path d="M138.16 245.607C144.926 242.766 152.282 241.61 159.593 242.24C156.047 243.489 154.017 249.601 155.133 261.331C156.114 270.9 157.363 280.112 158.344 286.691C158.478 287.694 158.634 288.608 158.768 289.478L153.192 290.349L152.746 287.582C151.676 280.892 150.048 271.858 148.063 262.446C145.721 250.782 141.929 245.607 138.16 245.607Z" fill="#64CF83"/>
<path opacity="0.2" d="M152.745 286.736C153.65 286.452 154.575 286.237 155.511 286.089C156.448 285.94 157.395 285.866 158.344 285.866C158.522 287.115 158.7 288.275 158.879 289.367L153.303 290.238C153.125 289.146 152.946 287.985 152.745 286.736Z" fill="black"/>
<path d="M144.85 296.193C144.963 296.869 145.214 297.515 145.586 298.088L145.853 298.468C145.864 298.519 145.864 298.572 145.853 298.624C146.021 298.798 146.2 298.962 146.389 299.114L146.679 299.316L147.147 299.627C150.418 301.129 154.084 301.544 157.607 300.81C161.178 300.422 164.535 298.915 167.198 296.506C167.331 296.371 167.443 296.216 167.555 296.082C167.623 295.981 167.698 295.883 167.778 295.792C167.907 295.586 168.018 295.368 168.112 295.145V294.967C168.112 294.81 168.224 294.676 168.246 294.543C168.437 293.884 168.483 293.194 168.383 292.516C168.283 291.838 168.039 291.191 167.666 290.618C166.283 288.163 161.22 286.937 155.488 287.83C149.756 288.721 145.296 291.443 144.738 294.208C144.631 294.87 144.669 295.548 144.85 296.193Z" fill="#64CF83"/>
<path opacity="0.3" d="M149.87 297.108C149.58 295.212 152.546 293.183 156.561 292.647C160.575 292.112 163.965 293.071 164.255 294.879C164.434 296.037 163.386 297.286 161.579 298.18C163.274 296.684 162.627 294.722 160.129 294.165C157.394 293.811 154.616 294.277 152.145 295.503C150.762 296.372 150.026 297.309 150.762 298.403C150.306 298.104 149.986 297.64 149.87 297.108Z" fill="black"/>
<path d="M176.811 235.729C182.074 231.267 187.9 227.517 194.14 224.576C191.375 226.808 190.639 230.822 193.472 236.286C195.702 240.747 198.266 244.918 200.163 247.861L200.944 249.11L196.483 252.01L195.679 250.784C193.762 247.884 190.974 243.936 187.851 239.988C183.926 235.105 179.956 234.123 176.811 235.729Z" fill="#64CF83"/>
<path opacity="0.2" d="M195.145 250.068C195.859 249.501 196.604 248.972 197.375 248.486C198.092 247.998 198.838 247.551 199.606 247.148L200.855 249.088L196.394 251.987L195.145 250.068Z" fill="black"/>
<path d="M193.137 258.321C193.396 258.743 193.746 259.101 194.163 259.37L194.454 259.525H194.566L195.056 259.705H195.3H195.702C198.264 259.726 200.766 258.946 202.861 257.473C205.087 256.186 206.844 254.228 207.881 251.875C207.924 251.752 207.962 251.625 207.992 251.497V251.23C208.002 251.057 208.002 250.887 207.992 250.717C207.992 250.717 207.992 250.717 207.992 250.582C207.992 250.448 207.992 250.359 207.992 250.27C207.907 249.782 207.735 249.312 207.479 248.887C207.218 248.478 206.868 248.135 206.454 247.883C204.847 246.68 201.188 247.348 197.71 249.6C194.231 251.854 192.089 254.909 192.535 256.872C192.609 257.398 192.815 257.897 193.137 258.321Z" fill="#64CF83"/>
<path opacity="0.3" d="M196.639 257.495C195.902 256.335 197.24 254.149 199.65 252.587C202.059 251.028 204.601 250.716 205.337 251.853C205.806 252.567 205.471 253.681 204.557 254.773C205.225 253.303 204.245 252.232 202.438 252.544C200.554 253.11 198.877 254.219 197.621 255.733C196.951 256.715 196.75 257.54 197.621 257.962C197.244 257.94 196.892 257.773 196.639 257.495Z" fill="black"/>
<path d="M207.3 211.596C209.73 204.673 213.792 198.439 219.142 193.419C217.692 196.875 220.838 202.474 230.293 209.365C238.012 215.009 245.639 220.227 251.171 223.885L253.512 225.424L250.412 230.152L248.069 228.613C242.493 225.045 234.688 220.161 226.368 215.365C216.22 209.499 209.91 208.875 207.3 211.596Z" fill="#64CF83"/>
<path opacity="0.2" d="M247.446 228.21C247.84 227.355 248.294 226.526 248.807 225.734C249.329 224.955 249.903 224.209 250.523 223.505L253.514 225.468L250.412 230.195L247.446 228.21Z" fill="black"/>
<path d="M249.163 241.638C249.801 242.039 250.514 242.306 251.26 242.418H251.75H251.974C252.233 242.441 252.494 242.441 252.753 242.418H253.134L253.736 242.263C257.224 240.521 260.188 237.883 262.321 234.618C264.452 231.352 265.676 227.578 265.867 223.683C265.867 223.461 265.867 223.261 265.867 223.06C265.879 222.933 265.879 222.806 265.867 222.68C265.807 222.426 265.716 222.178 265.601 221.943V221.743L265.354 221.319C264.957 220.683 264.425 220.142 263.799 219.729C263.17 219.318 262.461 219.046 261.719 218.932C258.73 218.264 254.025 221.476 250.567 226.785C247.111 232.092 246.106 237.713 247.868 240.166C248.202 240.735 248.641 241.235 249.163 241.638Z" fill="#64CF83"/>
<path opacity="0.3" d="M253.558 238.272C251.795 237.134 252.331 233.23 254.718 229.55C257.104 225.871 260.471 223.84 262.211 224.978C263.282 225.671 263.528 227.453 262.947 229.55C262.947 227.075 260.895 226.183 258.62 227.811C256.332 229.779 254.672 232.378 253.847 235.283C253.535 237.043 253.847 238.338 255.208 238.516C254.648 238.652 254.055 238.563 253.558 238.272Z" fill="black"/>
<path d="M225.367 177.204C225.354 169.565 226.574 161.973 228.98 154.722C228.845 158.625 232.303 162.328 240.309 164.268C246.867 165.852 253.223 167.101 257.818 167.859L259.758 168.193L258.821 174.037L256.881 173.725C252.265 173.033 245.73 172.208 239.039 171.673C230.897 171.026 226.459 173.457 225.367 177.204Z" fill="#64CF83"/>
<path opacity="0.2" d="M256.145 173.613C256.145 172.676 256.3 171.695 256.457 170.646C256.61 169.669 256.818 168.701 257.081 167.747L259.758 168.193L258.821 174.036L256.145 173.613Z" fill="black"/>
<path d="M261.989 181.463C262.533 181.576 263.095 181.576 263.64 181.463L263.973 181.329H264.13C264.302 181.258 264.467 181.168 264.62 181.062L264.866 180.884L265.222 180.594C267.16 178.457 268.377 175.765 268.702 172.899C269.302 170.087 268.99 167.157 267.809 164.535C267.741 164.401 267.66 164.274 267.565 164.156L267.408 163.911L267.007 163.487H266.872C266.785 163.407 266.689 163.34 266.583 163.286C266.136 162.97 265.623 162.758 265.082 162.665C264.542 162.573 263.988 162.602 263.46 162.751C261.23 163.197 259.001 166.765 258.331 171.36C257.661 175.954 258.554 180.014 260.56 181.129C261.009 181.335 261.495 181.449 261.989 181.463Z" fill="#64CF83"/>
<path opacity="0.3" d="M263.907 177.894C262.412 177.671 261.675 174.905 262.099 171.716C262.523 168.527 264.331 166.185 265.758 166.408C266.695 166.564 267.363 167.679 267.609 169.263C266.872 167.612 265.245 167.612 264.196 169.263C263.246 171.261 262.913 173.497 263.237 175.686C263.549 176.979 264.085 177.76 265.11 177.47C264.948 177.617 264.758 177.73 264.55 177.803C264.344 177.876 264.124 177.907 263.907 177.894Z" fill="black"/>
<path d="M227.774 134.895C226.042 129.62 224.613 124.251 223.491 118.814C224.227 121.044 226.012 123.631 228.353 123.609C230.079 123.605 231.8 123.411 233.484 123.029L234.063 122.94L234.977 126.33L234.444 126.486C232.782 126.982 231.209 127.734 229.782 128.717C228.874 129.432 228.198 130.401 227.84 131.501C227.483 132.601 227.46 133.782 227.774 134.895Z" fill="#64CF83"/>
<path opacity="0.2" d="M233.662 126.619C233.484 126.106 233.306 125.548 233.149 124.946C232.994 124.344 232.86 123.764 232.771 123.207L234.063 122.939L234.978 126.329L233.662 126.619Z" fill="black"/>
<path d="M240.154 130.79C240.561 130.667 240.941 130.462 241.268 130.188C241.352 130.141 241.427 130.081 241.492 130.01C241.605 129.906 241.702 129.785 241.781 129.653C241.823 129.597 241.861 129.537 241.893 129.474C241.893 129.474 241.893 129.274 242.048 129.162C242.743 127.047 242.743 124.765 242.048 122.65C241.573 120.472 240.426 118.498 238.77 117.007L238.481 116.828L238.28 116.695L237.879 116.538H237.744H237.476C237.057 116.45 236.624 116.45 236.206 116.538C235.797 116.65 235.416 116.848 235.089 117.118C233.685 118.122 233.261 121.311 234.175 124.791C235.089 128.27 237.052 130.835 238.793 130.991C239.255 131.032 239.722 130.963 240.154 130.79Z" fill="#64CF83"/>
<path opacity="0.3" d="M240.398 127.667C239.238 127.957 237.811 126.262 237.163 123.875C236.518 121.489 236.942 119.281 238.079 118.969C238.793 118.79 239.618 119.37 240.309 120.418C239.26 119.459 238.079 119.995 237.922 121.556C237.896 123.264 238.359 124.944 239.26 126.396C239.885 127.198 240.532 127.578 241.157 127.065C240.986 127.352 240.716 127.566 240.398 127.667Z" fill="black"/>
<path d="M213.723 98.9406C207.964 94.4446 203.221 88.782 199.805 82.3245C202.638 84.7556 205.403 86.2722 213.723 80.0942C220.526 75.0536 221.127 74.8974 225.655 71.1727L227.574 69.5894L231.187 73.8938L229.29 75.4997C224.829 79.3135 224.474 79.7373 218.317 85.5585C210.801 92.6956 211.761 95.7289 213.723 98.9406Z" fill="#64CF83"/>
<path opacity="0.2" d="M228.465 76.103C227.761 75.4764 227.106 74.7979 226.502 74.0734C225.891 73.3727 225.331 72.6272 224.829 71.8431L227.573 69.6128L231.186 73.9172L228.465 76.103Z" fill="black"/>
<path d="M239.974 77.7745C240.478 77.3545 240.881 76.8291 241.157 76.2356C241.225 76.1059 241.286 75.9717 241.335 75.834V75.6557C241.405 75.4384 241.45 75.2139 241.469 74.9864C241.469 74.9864 241.469 74.7635 241.469 74.652C241.469 74.5405 241.469 74.2951 241.469 74.1168C240.913 70.7683 239.469 67.6301 237.288 65.0295C235.108 62.4286 232.269 60.4603 229.069 59.3296H228.556H227.53H227.329H226.928C226.29 59.5122 225.7 59.8234 225.187 60.2439C224.699 60.6535 224.303 61.163 224.029 61.7383C222.711 63.9686 224.207 68.7862 227.753 73.0238C231.298 77.2614 235.693 79.5363 238.191 78.6443C238.84 78.4825 239.448 78.1863 239.974 77.7745Z" fill="#64CF83"/>
<path opacity="0.3" d="M238.28 73.2925C236.897 74.4523 233.819 73.0248 231.321 70.103C228.823 67.1813 228.043 63.8804 229.425 62.7206C230.273 61.9845 231.811 62.2521 233.418 63.2781C231.344 62.6314 230.095 64.1033 230.852 66.4229C231.915 68.8205 233.662 70.8525 235.871 72.2665C237.275 72.9802 238.39 73.114 238.926 71.9765C238.884 72.4811 238.653 72.951 238.28 73.2925Z" fill="black"/>
<path d="M183.881 70.8168C177.933 69.2317 172.351 66.5046 167.444 62.7876C170.455 63.7466 174.425 61.3379 178.395 54.3345C179.793 52.3068 181.06 50.191 182.186 48.0005L183.034 46.2607L187.316 48.3572L186.469 50.0969C185.413 52.3248 184.526 54.6285 183.815 56.9886C180.759 64.4157 181.294 69.0326 183.881 70.8168Z" fill="#64CF83"/>
<path opacity="0.2" d="M186 51.0559C185.232 50.8237 184.486 50.525 183.769 50.1637C183.052 49.8085 182.359 49.4063 181.695 48.9595C182.163 48.0005 182.609 47.1083 183.011 46.2607L187.293 48.3572L186 51.0559Z" fill="black"/>
<path d="M193.695 48.4029C193.896 47.9851 194.002 47.5284 194.008 47.0647C194.019 46.9609 194.019 46.8563 194.008 46.7526V46.6188C193.992 46.4583 193.955 46.3006 193.896 46.1503C193.905 46.0688 193.905 45.9864 193.896 45.905C193.854 45.7894 193.801 45.6774 193.741 45.5704C192.405 43.5618 190.557 41.9453 188.39 40.8869C186.222 39.8285 183.812 39.3666 181.406 39.5484L181.049 39.6601H180.804L180.38 39.8831H180.269L180.023 40.0615C179.67 40.3613 179.375 40.7243 179.154 41.132C178.966 41.5544 178.86 42.0085 178.841 42.4703C178.663 44.3438 181.072 46.9309 184.506 48.7152C187.942 50.4994 191.577 50.6556 192.936 49.3396C193.239 49.0712 193.497 48.7548 193.695 48.4029Z" fill="#64CF83"/>
<path opacity="0.3" d="M191.286 45.9706C190.73 47.1302 188.298 47.1081 185.845 45.9706C183.391 44.8331 181.897 42.8703 182.477 41.7106C182.811 40.9969 183.882 40.7293 185.22 40.9299C183.704 41.1084 183.324 42.4243 184.484 43.718C185.87 44.9665 187.592 45.7808 189.435 46.0597C190.55 46.0597 191.309 45.8813 191.331 44.9893C191.441 45.3101 191.426 45.6609 191.286 45.9706Z" fill="black"/>
<path d="M148.508 57.5452C141.324 59.0238 133.891 58.7637 126.829 56.7869C130.554 56.2516 133.698 50.6757 134.724 38.9442C135.572 29.4428 136.107 20.2538 136.375 13.652C136.375 12.6484 136.375 11.7116 136.486 10.8418L142.107 11.0425C142.107 11.9124 142.107 12.8491 142.107 13.8305C141.928 20.5215 141.794 29.6659 141.973 39.2118C142.107 50.9657 144.85 56.7422 148.508 57.5452Z" fill="#64CF83"/>
<path opacity="0.2" d="M141.996 14.6563C141.054 14.736 140.106 14.736 139.163 14.6563C138.212 14.6344 137.264 14.53 136.331 14.3441C136.331 13.0951 136.442 11.913 136.487 10.7979L142.107 10.9986C142.085 12.2253 142.041 13.4073 141.996 14.6563Z" fill="black"/>
<path d="M151.542 6.96156C151.567 6.27255 151.438 5.58665 151.163 4.95425C151.117 4.80763 151.057 4.66574 150.984 4.53051C150.973 4.47163 150.973 4.41093 150.984 4.35207L150.561 3.77218L150.315 3.50453L149.914 3.12537C146.9 1.21243 143.43 0.137855 139.863 0.0124019C136.295 -0.113051 132.759 0.715156 129.618 2.41166C129.46 2.51818 129.31 2.63755 129.172 2.76852L128.904 3.01386C128.737 3.18405 128.587 3.37087 128.458 3.57145C128.416 3.62768 128.379 3.68736 128.346 3.74987C128.266 3.8688 128.199 3.99591 128.146 4.12904C127.831 4.74596 127.648 5.4222 127.61 6.11404C127.589 6.79342 127.71 7.46977 127.967 8.09904C128.86 10.7532 133.61 12.9166 139.409 13.1173C145.208 13.318 150.092 11.4892 151.163 8.90197C151.428 8.29014 151.557 7.62815 151.542 6.96156Z" fill="#64CF83"/>
<path opacity="0.3" d="M146.769 5.02013C146.769 6.93822 143.401 8.36565 139.386 8.23182C135.372 8.09799 132.204 6.42526 132.271 4.52946C132.271 3.34738 133.587 2.2991 135.505 1.78613C133.565 2.94591 133.833 4.97552 136.174 6.00148C138.795 6.86415 141.611 6.93398 144.271 6.20221C145.81 5.62233 146.702 4.8194 146.189 3.61502C146.374 3.79891 146.521 4.01788 146.62 4.25916C146.72 4.50043 146.77 4.75912 146.769 5.02013Z" fill="black"/>
<path d="M108.607 59.9773C102.599 63.3697 96.1729 65.9639 89.4932 67.6942C92.6157 66.0661 94.1101 62.2744 92.3927 56.4088C90.9876 51.6357 89.3594 47.1305 88.1104 43.941C87.932 43.4504 87.7535 43.0043 87.5752 42.5806L92.5487 40.5732C92.7048 40.997 92.9056 41.4431 93.1064 41.9115C94.4222 45.1008 96.3849 49.4501 98.6821 53.8662C101.537 59.2636 105.217 60.9587 108.607 59.9773Z" fill="#64CF83"/>
<path opacity="0.2" d="M93.4185 42.6473C92.6217 43.0701 91.8028 43.4499 90.9653 43.7848C90.1329 44.1177 89.2844 44.408 88.4227 44.6546C88.1328 43.8962 87.8428 43.1825 87.5752 42.4243L92.5487 40.417L93.4185 42.6473Z" fill="black"/>
<path d="M96.9645 34.9301C96.7824 34.4659 96.5008 34.047 96.1393 33.7035L95.894 33.5027H95.7825L95.3364 33.2351H95.1135L94.7342 33.1013C92.2231 32.7288 89.6578 33.0348 87.3049 33.9878C84.9517 34.9409 82.8965 36.5059 81.3521 38.521C81.3521 38.521 81.2407 38.744 81.1738 38.8778C81.1068 39.0116 81.1738 39.0339 81.1738 39.1231C81.1057 39.2794 81.0607 39.4446 81.04 39.6138C81.0296 39.6579 81.0296 39.7037 81.04 39.7477C81.0296 39.8516 81.0296 39.956 81.04 40.0599C81.0101 40.5556 81.094 41.0515 81.2853 41.5097C81.4594 41.9598 81.7341 42.364 82.0882 42.6916C83.4265 44.1861 87.151 44.2307 91.0095 42.6916C94.868 41.1527 97.5223 38.521 97.4553 36.5137C97.4375 35.9512 97.2679 35.404 96.9645 34.9301Z" fill="#64CF83"/>
<path opacity="0.3" d="M93.3735 35.0861C93.8864 36.3574 92.1245 38.2533 89.4703 39.3238C86.8162 40.3944 84.2513 40.2383 83.7382 38.967C83.4261 38.1863 83.9614 37.1603 85.0765 36.246C84.1398 37.5619 84.898 38.8109 86.7269 38.8109C88.6928 38.6142 90.5559 37.8378 92.0798 36.5806C92.905 35.7329 93.2618 34.9747 92.5704 34.3501C92.9211 34.4858 93.2079 34.7485 93.3735 35.0861Z" fill="black"/>
<path d="M73.9027 78.578C70.5722 85.1877 65.315 90.6317 58.8256 94.1906C60.7882 90.9341 57.6434 83.7972 47.4062 73.0245C44.9752 70.4819 39.9793 64.1032 34.0243 58.282C33.1321 57.3898 32.2845 56.5869 31.4817 55.8064L35.407 51.7471C36.1875 52.5278 37.0351 53.353 37.9719 54.2228C44.0384 60.0217 50.5956 66.2443 52.4468 67.8949C63.4648 77.7752 70.7134 80.563 73.9027 78.578Z" fill="#64CF83"/>
<path opacity="0.2" d="M37.9062 54.2236C37.3503 55.0098 36.7392 55.7551 36.0774 56.454C35.3858 57.1379 34.6399 57.7643 33.8469 58.3274C32.9549 57.4354 32.1074 56.6323 31.3043 55.8518L35.2298 51.7925C36.1218 52.5285 36.9694 53.3537 37.9062 54.2236Z" fill="black"/>
<path d="M38.7758 40.7289C38.2324 40.1971 37.5772 39.7932 36.8578 39.547C36.7104 39.4762 36.552 39.431 36.3894 39.4132H36.1888C35.9289 39.3903 35.6677 39.3903 35.408 39.4132H35.029C34.821 39.4011 34.6124 39.4011 34.4044 39.4132C30.6447 40.4556 27.2315 42.4834 24.5182 45.287C21.8047 48.0907 19.8894 51.5683 18.9705 55.3602C18.9597 55.5682 18.9597 55.7765 18.9705 55.9845V56.386C18.9705 56.6536 18.9705 56.9214 18.9705 57.1667V57.3673C19.0201 57.527 19.0797 57.6836 19.149 57.8357C19.4181 58.5413 19.8366 59.1804 20.3756 59.7092C20.9095 60.2259 21.5485 60.6215 22.2491 60.8691C25.0593 62.0957 30.2782 59.8207 34.6943 55.2485C39.1104 50.6764 41.1846 45.3905 39.8688 42.6025C39.6373 41.9094 39.2652 41.2716 38.7758 40.7289Z" fill="#64CF83"/>
<path opacity="0.3" d="M33.8456 43.1823C35.3399 44.6319 34.0909 48.3789 31.0355 51.5237C27.9798 54.6685 24.3444 55.9845 22.8277 54.6015C21.891 53.7095 22.0025 51.9475 22.9838 49.9848C22.493 52.3936 24.3442 53.6649 26.887 52.5051C29.5066 51.0127 31.6256 48.7775 32.9758 46.0817C33.6225 44.3866 33.6448 43.093 32.2621 42.6246C32.8424 42.5971 33.4105 42.7972 33.8456 43.1823Z" fill="black"/>
<path d="M50.5514 108.285C49.4673 115.881 46.8084 123.166 42.7453 129.674C43.5036 125.838 39.6674 121.132 29.8316 116.85C21.8246 113.371 22.5607 113.839 16.8956 111.72L14.4868 110.828L16.5164 105.274L18.9253 106.144C24.635 108.174 24.0327 107.326 32.3074 109.802C42.7008 112.835 48.6334 111.787 50.5514 108.285Z" fill="#64CF83"/>
<path opacity="0.2" d="M19.0591 106.189C18.8212 107.156 18.5309 108.108 18.1892 109.044C17.865 109.976 17.4774 110.885 17.0294 111.765L14.4868 110.828L16.5164 105.274L19.0591 106.189Z" fill="black"/>
<path d="M14.8209 97.3795C14.2906 97.1978 13.7298 97.1221 13.1704 97.1565H12.8135H12.6575L12.1221 97.3348L11.8545 97.4686L11.4531 97.6694C9.12745 99.3734 7.41427 101.783 6.5686 104.539C5.45146 107.197 5.20929 110.142 5.8772 112.947C5.92715 113.092 5.98673 113.234 6.0556 113.371C6.08312 113.464 6.12056 113.554 6.16716 113.639C6.25815 113.803 6.36257 113.96 6.47937 114.107L6.59092 114.241C6.66112 114.334 6.74362 114.416 6.83622 114.486C7.22809 114.879 7.69962 115.183 8.21904 115.378C8.72341 115.571 9.26472 115.647 9.80263 115.601C12.033 115.601 14.8878 112.501 16.4937 108.13C18.0995 103.758 17.8988 99.5874 16.2037 98.1155C15.7922 97.7868 15.3234 97.5371 14.8209 97.3795Z" fill="#64CF83"/>
<path opacity="0.3" d="M12.2344 100.502C13.6841 101.038 13.9517 103.893 12.8588 106.926C11.766 109.959 9.69176 111.967 8.26434 111.387C7.3722 111.074 6.92611 109.848 6.99301 108.242C7.39448 110.026 9.00034 110.316 10.3609 108.777C11.6993 107.001 12.476 104.865 12.5912 102.644C12.5912 101.328 12.1451 100.413 11.0968 100.547C11.4587 100.398 11.8619 100.382 12.2344 100.502Z" fill="black"/>
<path d="M39.6231 149.703C40.3203 155.208 40.7076 160.748 40.7829 166.297C40.4929 164.067 39.2217 161.078 36.9244 160.654C35.2197 160.33 33.4836 160.203 31.7499 160.275H31.1032L30.8579 156.773H31.4155C33.1259 156.604 34.8016 156.183 36.3891 155.524C37.4589 155.001 38.3423 154.163 38.9207 153.122C39.4989 152.081 39.7442 150.888 39.6231 149.703Z" fill="#64CF83"/>
<path opacity="0.2" d="M32.2406 156.573C32.2406 157.131 32.3968 157.711 32.4412 158.335C32.474 158.922 32.474 159.51 32.4412 160.097H31.1476L30.9023 156.596L32.2406 156.573Z" fill="black"/>
<path d="M26.6426 151.287C26.2117 151.311 25.7921 151.433 25.416 151.644L25.1705 151.778C25.0447 151.857 24.9319 151.954 24.8361 152.068L24.68 152.246L24.4568 152.514C23.4723 154.491 23.0339 156.696 23.1869 158.899C23.3398 161.103 24.0785 163.226 25.3267 165.048L25.572 165.272C25.6183 165.329 25.6708 165.381 25.7281 165.428L26.1074 165.673H26.2189L26.4865 165.784C26.883 165.942 27.3094 166.011 27.7354 165.985C28.1505 165.952 28.5534 165.83 28.9176 165.628C30.5012 164.915 31.527 161.859 31.2817 158.268C31.0364 154.677 29.5866 151.8 27.9363 151.31C27.5142 151.191 27.0685 151.183 26.6426 151.287Z" fill="#64CF83"/>
<path opacity="0.3" d="M25.8394 154.298C27.0215 154.298 28.0697 156.149 28.2928 158.625C28.5158 161.1 27.6459 163.085 26.464 163.264C25.7503 163.264 25.0364 162.595 24.5905 161.435C25.4156 162.55 26.6646 162.26 27.133 160.744C27.4909 159.075 27.3514 157.338 26.7316 155.748C26.2632 154.833 25.7279 154.343 25.0142 154.744C25.2222 154.495 25.5175 154.336 25.8394 154.298Z" fill="black"/>
<path d="M91.6343 66.1098C108.438 57.5886 127.392 54.2419 146.098 56.493C164.804 58.7441 182.423 66.492 196.725 78.7566C211.028 91.0213 221.373 107.252 226.449 125.396C231.527 143.54 231.111 162.783 225.253 180.69C219.394 198.598 208.356 214.363 193.536 225.997C178.715 237.631 160.778 244.61 141.991 246.048C123.205 247.486 104.414 243.323 87.9951 234.081C71.5759 224.841 58.2657 210.938 49.7483 194.131C38.3291 171.6 36.3267 145.455 44.1815 121.447C52.0363 97.4394 69.1052 77.5344 91.6343 66.1098Z" fill="#64CF83"/>
<path d="M91.6343 66.1098C108.438 57.5886 127.392 54.2419 146.098 56.493C164.804 58.7441 182.423 66.492 196.725 78.7566C211.028 91.0213 221.373 107.252 226.449 125.396C231.527 143.54 231.111 162.783 225.253 180.69C219.394 198.598 208.356 214.363 193.536 225.997C178.715 237.631 160.778 244.61 141.991 246.048C123.205 247.486 104.414 243.323 87.9951 234.081C71.5759 224.841 58.2657 210.938 49.7483 194.131C38.3291 171.6 36.3267 145.455 44.1815 121.447C52.0363 97.4394 69.1052 77.5344 91.6343 66.1098Z" fill="#64CF83"/>
<path opacity="0.4" d="M91.6343 66.1098C108.438 57.5886 127.392 54.2419 146.098 56.493C164.804 58.7441 182.423 66.492 196.725 78.7566C211.028 91.0213 221.373 107.252 226.449 125.396C231.527 143.54 231.111 162.783 225.253 180.69C219.394 198.598 208.356 214.363 193.536 225.997C178.715 237.631 160.778 244.61 141.991 246.048C123.205 247.486 104.414 243.323 87.9951 234.081C71.5759 224.841 58.2657 210.938 49.7483 194.131C38.3291 171.6 36.3267 145.455 44.1815 121.447C52.0363 97.4394 69.1052 77.5344 91.6343 66.1098Z" fill="white"/>
<path opacity="0.1" d="M122.77 56.5418C150.872 53.7984 216.623 83.172 218.496 152.446C220.37 221.72 149.601 246.12 125.379 245.899C138.727 247.222 152.205 245.713 164.929 241.47C177.653 237.225 189.337 230.341 199.216 221.268C209.098 212.196 216.948 201.14 222.261 188.822C227.572 176.505 230.221 163.205 230.036 149.792C229.85 136.38 226.835 123.158 221.188 110.992C215.538 98.8262 207.385 87.9901 197.259 79.1933C187.132 70.3965 175.263 63.8375 162.426 59.9455C149.59 56.0537 136.076 54.9166 122.77 56.6086V56.5418Z" fill="black"/>
<path d="M184.996 178.006C187.226 171.204 193.272 167.078 198.378 168.795C203.486 170.512 205.784 177.426 203.509 184.229C201.234 191.031 195.211 195.157 190.126 193.44C185.041 191.724 182.766 184.809 184.996 178.006Z" fill="#64CF83"/>
<path opacity="0.1" d="M184.996 178.006C187.226 171.204 193.272 167.078 198.378 168.795C203.486 170.512 205.784 177.426 203.509 184.229C201.234 191.031 195.211 195.157 190.126 193.44C185.041 191.724 182.766 184.809 184.996 178.006Z" fill="black"/>
<path opacity="0.25" d="M194.587 190.429C191.553 191.968 187.762 187.619 189.456 181.195C190.817 176.11 194.63 172.14 197.71 172.163C198.249 172.18 198.779 172.304 199.269 172.529C199.759 172.753 200.2 173.073 200.566 173.469C200.931 173.866 201.213 174.331 201.397 174.838C201.58 175.345 201.662 175.884 201.635 176.423C200.742 174.393 198.512 173.724 195.97 175.642C194.377 176.907 193.116 178.541 192.297 180.402C191.477 182.264 191.121 184.296 191.263 186.325C191.53 188.868 192.936 190.429 194.587 190.429Z" fill="black"/>
<path d="M94.3557 107.773C90.2519 113.661 83.3379 115.914 78.8995 112.836C74.461 109.758 74.1934 102.464 78.2972 96.5764C82.4012 90.6883 89.3152 88.4356 93.7536 91.5135C98.1919 94.5914 98.4374 101.862 94.3557 107.773Z" fill="#64CF83"/>
<path opacity="0.1" d="M94.3557 107.773C90.2519 113.661 83.3379 115.914 78.8995 112.836C74.461 109.758 74.1934 102.464 78.2972 96.5764C82.4012 90.6883 89.3152 88.4356 93.7536 91.5135C98.1919 94.5914 98.4374 101.862 94.3557 107.773Z" fill="black"/>
<path opacity="0.25" d="M88.6464 93.1417C91.9921 92.5395 94.4231 97.7584 90.8769 103.446C88.1559 107.907 83.383 110.695 80.4388 109.802C79.9269 109.636 79.453 109.37 79.0449 109.019C78.6367 108.667 78.3026 108.239 78.0619 107.757C77.8209 107.275 77.6784 106.751 77.6425 106.214C77.6063 105.676 77.6775 105.137 77.8516 104.628C78.1415 106.858 80.0821 108.085 83.0931 106.97C84.9658 106.193 86.6243 104.976 87.9286 103.424C89.2328 101.871 90.1447 100.027 90.587 98.0484C91.1222 95.5058 90.2077 93.6102 88.6464 93.1417Z" fill="black"/>
<path d="M124.354 179.233C130.264 180.46 134.323 185.054 133.386 189.492C132.45 193.931 126.941 196.541 121.053 195.337C115.165 194.131 111.105 189.515 112.02 185.076C112.934 180.638 118.466 178.029 124.354 179.233Z" fill="#64CF83"/>
<path opacity="0.1" d="M124.354 179.233C130.264 180.46 134.323 185.054 133.386 189.492C132.45 193.931 126.941 196.541 121.053 195.337C115.165 194.131 111.105 189.515 112.02 185.076C112.934 180.638 118.466 178.029 124.354 179.233Z" fill="black"/>
<path opacity="0.25" d="M114.964 188.49C113.381 186.103 116.615 182.49 122.146 183.271C126.607 183.873 130.22 186.661 130.532 189.248C130.569 189.699 130.516 190.153 130.376 190.584C130.236 191.016 130.013 191.413 129.719 191.758C129.424 192.102 129.065 192.384 128.661 192.589C128.257 192.793 127.817 192.916 127.365 192.95C128.971 191.991 129.305 190.051 127.365 188.133C126.149 186.969 124.673 186.112 123.059 185.635C121.445 185.158 119.74 185.074 118.087 185.39C115.968 185.791 114.808 187.107 114.964 188.49Z" fill="black"/>
<path d="M157.118 136.321C152.992 130.455 153.215 123.162 157.631 120.062C162.047 116.961 168.983 119.214 173.109 125.08C177.235 130.946 176.99 138.239 172.574 141.339C168.158 144.439 161.244 142.097 157.118 136.321Z" fill="#64CF83"/>
<path opacity="0.1" d="M157.118 136.321C152.992 130.455 153.215 123.162 157.631 120.062C162.047 116.961 168.983 119.214 173.109 125.08C177.235 130.946 176.99 138.239 172.574 141.339C168.158 144.439 161.244 142.097 157.118 136.321Z" fill="black"/>
<path opacity="0.25" d="M172.797 135.876C172.217 139.221 166.485 139.712 162.314 134.538C159.013 130.434 158.077 125.014 159.928 122.538C160.262 122.117 160.677 121.765 161.147 121.504C161.618 121.243 162.136 121.078 162.67 121.018C163.205 120.958 163.747 121.004 164.264 121.154C164.78 121.304 165.262 121.554 165.682 121.892C163.452 121.423 161.645 122.828 161.69 126.018C161.776 128.046 162.351 130.023 163.364 131.782C164.377 133.54 165.8 135.029 167.511 136.121C169.741 137.415 171.816 137.192 172.797 135.876Z" fill="black"/>
<path d="M124.198 210.614C131.134 212.444 135.639 218.153 134.257 223.372C132.874 228.59 126.138 231.358 119.202 229.527C112.265 227.699 107.76 221.989 109.121 216.771C110.481 211.551 117.239 208.786 124.198 210.614Z" fill="#64CF83"/>
<path opacity="0.1" d="M124.198 210.614C131.134 212.444 135.639 218.153 134.257 223.372C132.874 228.59 126.138 231.358 119.202 229.527C112.265 227.699 107.76 221.989 109.121 216.771C110.481 211.551 117.239 208.786 124.198 210.614Z" fill="black"/>
<path opacity="0.25" d="M112.421 221.075C110.703 218.13 114.785 214.05 121.342 215.342C126.517 216.347 130.71 219.803 130.91 222.971C130.928 223.509 130.839 224.046 130.647 224.55C130.455 225.053 130.165 225.513 129.793 225.903C129.422 226.295 128.976 226.607 128.482 226.823C127.989 227.039 127.457 227.154 126.918 227.164C128.881 226.138 129.394 223.863 127.32 221.454C125.946 219.956 124.231 218.813 122.32 218.123C120.409 217.432 118.36 217.212 116.346 217.485C113.781 217.863 112.332 219.357 112.421 221.075Z" fill="black"/>
<path d="M121.52 124.122C115.209 124.768 109.699 121.423 109.209 116.672C108.718 111.922 113.469 107.55 119.781 106.903C126.093 106.257 131.601 109.602 132.092 114.353C132.583 119.103 127.832 123.475 121.52 124.122Z" fill="#64CF83"/>
<path opacity="0.1" d="M121.52 124.122C115.209 124.768 109.699 121.423 109.209 116.672C108.718 111.922 113.469 107.55 119.781 106.903C126.093 106.257 131.601 109.602 132.092 114.353C132.583 119.103 127.832 123.475 121.52 124.122Z" fill="black"/>
<path opacity="0.25" d="M128.055 111.787C130.286 113.683 128.278 118.344 122.479 119.303C117.885 120.062 113.29 118.434 112.175 115.958C111.994 115.516 111.902 115.042 111.905 114.565C111.908 114.087 112.005 113.615 112.192 113.175C112.379 112.735 112.651 112.337 112.992 112.003C113.334 111.669 113.739 111.406 114.182 111.229C112.867 112.702 113.157 114.754 115.61 116.092C117.216 116.911 118.996 117.329 120.798 117.309C122.6 117.29 124.371 116.834 125.959 115.98C127.899 114.887 128.635 113.192 128.055 111.787Z" fill="black"/>
<path d="M80.9298 147.251C81.8444 157.153 76.4693 165.74 69.0868 166.454C61.7044 167.168 54.8572 159.763 53.9427 149.771C53.0284 139.779 58.4035 131.259 65.7636 130.568C73.1238 129.876 80.0155 137.348 80.9298 147.251Z" fill="#64CF83"/>
<path opacity="0.1" d="M80.9298 147.251C81.8444 157.153 76.4693 165.74 69.0868 166.454C61.7044 167.168 54.8572 159.763 53.9427 149.771C53.0284 139.779 58.4035 131.259 65.7636 130.568C73.1238 129.876 80.0155 137.348 80.9298 147.251Z" fill="black"/>
<path opacity="0.25" d="M61.8141 136.879C64.8028 133.243 72.0516 136.611 73.5012 145.8C74.6386 153.004 72.0293 160.164 68.1037 161.881C67.4114 162.159 66.671 162.297 65.9251 162.286C65.1792 162.276 64.4428 162.118 63.7582 161.822C63.0739 161.525 62.455 161.096 61.9375 160.558C61.4201 160.021 61.0143 159.387 60.7437 158.691C62.9739 160.766 66.2302 160.342 68.3714 156.461C69.6803 153.967 70.3643 151.193 70.3643 148.376C70.3643 145.56 69.6803 142.785 68.3714 140.291C66.5425 137.146 63.9108 135.964 61.8141 136.879Z" fill="black"/>
<path d="M195.925 136.031C194.32 130.923 196.148 125.793 200.007 124.589C203.864 123.385 208.282 126.552 209.864 131.682C211.448 136.811 209.643 141.919 205.784 143.123C201.924 144.328 197.532 141.16 195.925 136.031Z" fill="#64CF83"/>
<path opacity="0.1" d="M195.925 136.031C194.32 130.923 196.148 125.793 200.007 124.589C203.864 123.385 208.282 126.552 209.864 131.682C211.448 136.811 209.643 141.919 205.784 143.123C201.924 144.328 197.532 141.16 195.925 136.031Z" fill="black"/>
<path opacity="0.25" d="M207.165 139.355C206.007 141.585 201.79 140.648 200.007 136.009C198.601 132.351 199.182 128.27 201.056 126.932C201.389 126.709 201.764 126.554 202.157 126.476C202.551 126.399 202.956 126.399 203.35 126.478C203.743 126.557 204.116 126.712 204.451 126.935C204.784 127.159 205.07 127.445 205.293 127.779C203.864 126.954 202.214 127.534 201.523 129.809C201.114 131.271 201.069 132.81 201.387 134.294C201.705 135.779 202.381 137.163 203.351 138.329C204.646 139.756 206.162 140.068 207.165 139.355Z" fill="black"/>
<path d="M165.147 101.64C159.058 97.6258 156.537 90.6671 159.548 86.0281C162.559 81.3889 169.964 80.9428 176.053 84.9574C182.142 88.9721 184.684 95.9308 181.674 100.57C178.663 105.209 171.258 105.633 165.147 101.64Z" fill="#64CF83"/>
<path opacity="0.1" d="M165.147 101.64C159.058 97.6258 156.537 90.6671 159.548 86.0281C162.559 81.3889 169.964 80.9428 176.053 84.9574C182.142 88.9721 184.684 95.9308 181.674 100.57C178.663 105.209 171.258 105.633 165.147 101.64Z" fill="black"/>
<path opacity="0.25" d="M179.866 95.4175C180.58 98.7853 175.405 101.417 169.45 98.0716C164.789 95.4398 161.867 90.6668 162.759 87.6337C162.915 87.1081 163.173 86.6186 163.52 86.1941C163.866 85.7696 164.294 85.4183 164.778 85.1609C165.262 84.9035 165.792 84.7449 166.337 84.6946C166.883 84.6444 167.434 84.7033 167.956 84.868C165.726 85.2247 164.499 87.2544 165.726 90.243C166.567 92.1361 167.854 93.7967 169.478 95.0825C171.102 96.3684 173.014 97.2409 175.049 97.6255C177.524 98.0048 179.42 97.0234 179.866 95.4175Z" fill="black"/>
<path d="M127.342 86.1612C122.748 87.0978 118.421 85.0684 117.752 81.7004C117.083 78.3327 120.183 74.6973 124.778 73.7604C129.372 72.8238 133.699 74.8534 134.346 78.2212C134.993 81.5889 131.915 85.2245 127.342 86.1612Z" fill="#64CF83"/>
<path opacity="0.1" d="M127.342 86.1612C122.748 87.0978 118.421 85.0684 117.752 81.7004C117.083 78.3327 120.183 74.6973 124.778 73.7604C129.372 72.8238 133.699 74.8534 134.346 78.2212C134.993 81.5889 131.915 85.2245 127.342 86.1612Z" fill="black"/>
<path opacity="0.25" d="M131.202 76.6821C133.053 77.8866 131.849 81.4552 127.678 82.6148C124.355 83.507 120.875 82.6148 119.872 80.9197C119.705 80.6099 119.602 80.27 119.567 79.9197C119.533 79.5695 119.569 79.216 119.673 78.8799C119.777 78.5435 119.946 78.2314 120.172 77.9614C120.398 77.6913 120.674 77.4687 120.987 77.3067C120.139 78.4665 120.496 79.9607 122.414 80.7636C123.649 81.2451 124.982 81.4194 126.299 81.2718C127.616 81.1241 128.877 80.6589 129.975 79.9161C131.313 78.9124 131.737 77.619 131.202 76.6821Z" fill="black"/>
<path d="M85.9462 195.693C89.2469 199.016 89.9162 203.722 87.4181 206.197C84.9202 208.673 80.2141 208.005 76.9132 204.704C73.6124 201.403 72.9655 196.673 75.4636 194.198C77.9615 191.722 82.6452 192.392 85.9462 195.693Z" fill="#64CF83"/>
<path opacity="0.1" d="M85.9462 195.693C89.2469 199.016 89.9162 203.722 87.4181 206.197C84.9202 208.673 80.2141 208.005 76.9132 204.704C73.6124 201.403 72.9655 196.673 75.4636 194.198C77.9615 191.722 82.6452 192.392 85.9462 195.693Z" fill="black"/>
<path opacity="0.25" d="M75.9106 197.658C75.9106 195.426 79.546 194.512 82.8023 197.366C85.3672 199.598 86.5717 203.01 85.6572 204.816C85.4915 205.126 85.2659 205.399 84.9936 205.618C84.7212 205.84 84.4076 206.002 84.0711 206.101C83.7346 206.197 83.3818 206.228 83.0338 206.188C82.6857 206.146 82.3492 206.036 82.0441 205.864C83.4715 205.864 84.5197 204.816 84.1406 202.787C83.8629 201.49 83.2757 200.279 82.4291 199.257C81.5825 198.237 80.5016 197.434 79.2784 196.921C77.7172 196.34 76.4012 196.721 75.9106 197.658Z" fill="black"/>
<path d="M155.267 173.947C157.252 169.71 161.444 167.48 164.634 168.974C167.823 170.468 168.805 175.107 166.864 179.345C164.924 183.583 160.709 185.813 157.519 184.319C154.33 182.824 153.304 178.185 155.267 173.947Z" fill="#64CF83"/>
<path opacity="0.1" d="M155.267 173.947C157.252 169.71 161.444 167.48 164.634 168.974C167.823 170.468 168.805 175.107 166.864 179.345C164.924 183.583 160.709 185.813 157.519 184.319C154.33 182.824 153.304 178.185 155.267 173.947Z" fill="black"/>
<path opacity="0.25" d="M160.574 182.713C158.478 183.471 156.337 180.371 157.92 176.356C159.169 173.145 161.935 170.847 163.942 171.093C164.643 171.202 165.272 171.586 165.69 172.159C166.108 172.732 166.282 173.447 166.173 174.148C165.727 172.766 164.321 172.163 162.537 173.211C161.404 173.931 160.464 174.917 159.799 176.083C159.135 177.25 158.765 178.561 158.723 179.902C158.701 181.464 159.504 182.579 160.574 182.713Z" fill="black"/>
<path d="M103.032 153.251C103.656 157.89 101.359 162.038 97.8571 162.529C94.3556 163.02 91.0323 159.629 90.3856 155.013C89.7387 150.396 92.0583 146.225 95.5599 145.735C99.0616 145.244 102.474 148.612 103.032 153.251Z" fill="#64CF83"/>
<path opacity="0.1" d="M103.032 153.251C103.656 157.89 101.359 162.038 97.8571 162.529C94.3556 163.02 91.0323 159.629 90.3856 155.013C89.7387 150.396 92.0583 146.225 95.5599 145.735C99.0616 145.244 102.474 148.612 103.032 153.251Z" fill="black"/>
<path opacity="0.25" d="M93.8209 148.79C95.159 147.006 98.6384 148.433 99.5083 152.693C100.177 156.039 99.1069 159.384 97.278 160.365C96.9576 160.51 96.6116 160.589 96.2603 160.599C95.9091 160.608 95.5595 160.548 95.2317 160.422C94.9039 160.295 94.6043 160.105 94.3507 159.861C94.097 159.618 93.8942 159.327 93.7539 159.005C94.869 159.942 96.3635 159.674 97.3001 157.823C97.8539 156.619 98.1106 155.3 98.0485 153.977C97.9864 152.653 97.6073 151.364 96.9434 150.217C96.0512 148.812 94.7799 148.299 93.8209 148.79Z" fill="black"/>
<path d="M161.578 213.803C165.794 211.774 170.5 212.711 171.972 215.877C173.444 219.044 171.325 223.26 167.109 225.289C162.894 227.318 158.188 226.404 156.716 223.238C155.244 220.07 157.363 215.832 161.578 213.803Z" fill="#64CF83"/>
<path opacity="0.1" d="M161.578 213.803C165.794 211.774 170.5 212.711 171.972 215.877C173.444 219.044 171.325 223.26 167.109 225.289C162.894 227.318 158.188 226.404 156.716 223.238C155.244 220.07 157.363 215.832 161.578 213.803Z" fill="black"/>
<path opacity="0.25" d="M160.129 223.952C158.054 223.215 158.344 219.491 162.114 217.259C165.102 215.565 168.693 215.543 170.076 216.992C170.313 217.252 170.497 217.554 170.617 217.884C170.737 218.213 170.79 218.563 170.773 218.915C170.757 219.265 170.671 219.608 170.52 219.926C170.37 220.242 170.158 220.528 169.898 220.762C170.433 219.402 169.719 218.064 167.667 217.751C166.35 217.587 165.012 217.744 163.769 218.211C162.526 218.677 161.415 219.438 160.53 220.427C159.482 221.811 159.393 223.17 160.129 223.952Z" fill="black"/>
<path d="M129.817 138.709C135.951 138.576 140.969 144.241 141.17 151.333C141.371 158.426 136.442 164.269 130.308 164.381C124.175 164.492 119.156 158.849 118.956 151.757C118.755 144.664 123.684 138.821 129.817 138.709Z" fill="#64CF83"/>
<path opacity="0.1" d="M129.817 138.709C135.951 138.576 140.969 144.241 141.17 151.333C141.371 158.426 136.442 164.269 130.308 164.381C124.175 164.492 119.156 158.849 118.956 151.757C118.755 144.664 123.684 138.821 129.817 138.709Z" fill="black"/>
<path opacity="0.25" d="M126.739 159.897C130.196 161.927 135.46 159.897 137.244 154.009C139.029 148.121 134.033 140.225 128.657 141.92C130.389 143.036 131.795 144.588 132.735 146.421C133.675 148.254 134.115 150.302 134.01 152.359C133.564 157.265 130.196 160.209 126.739 159.897Z" fill="black"/>
</g>
</svg>
