<svg width="222" height="250" viewBox="0 0 222 250" fill="none" xmlns="http://www.w3.org/2000/svg">
<g opacity="0.5">
<path opacity="0.5" d="M38.2138 151.807C42.1722 156.398 44.9532 161.884 46.3161 167.79C44.4357 165.329 39.0435 165.329 30.0286 169.339C22.6452 172.602 15.649 175.975 10.6715 178.464L8.56983 179.515L6.46826 175.367L8.56983 174.289C13.5197 171.744 20.3777 168.067 27.3739 164.057C35.9186 159.135 39.0987 154.793 38.2138 151.807Z" fill="#CECECE"/>
<path opacity="0.5" d="M9.03981 174.148C9.49949 174.778 9.90645 175.443 10.2565 176.14C10.6143 176.844 10.9193 177.574 11.169 178.324L8.54207 179.624L6.44043 175.476L9.03981 174.148Z" fill="#C3C3C3"/>
<path opacity="0.5" d="M1.49141 171.549C1.07714 171.758 0.717334 172.061 0.440583 172.434C0.362037 172.494 0.296303 172.569 0.247077 172.655C0.157026 172.794 0.0827739 172.942 0.0258056 173.098C0.0101051 173.171 0.0101051 173.246 0.0258056 173.319C0.0101613 173.438 0.0101613 173.559 0.0258056 173.678C-0.121632 176.039 0.364668 178.397 1.43428 180.507C2.5039 182.617 4.11797 184.403 6.10948 185.68L6.469 185.818H6.69018H7.16031H7.57511C8.03836 185.82 8.49472 185.706 8.90239 185.486C9.30298 185.28 9.65986 184.998 9.95322 184.656C11.1976 183.274 10.9487 179.845 9.20661 176.361C7.46449 172.876 4.83743 170.692 2.98469 170.83C2.436 170.945 1.92349 171.192 1.49141 171.549Z" fill="#CECECE"/>
<path opacity="0.5" d="M1.90573 174.867C3.03951 174.314 4.9199 175.752 6.13663 178.13C7.35336 180.508 7.38106 182.887 6.27495 183.44C5.16882 183.993 4.58808 183.44 3.64788 182.444C4.94758 183.191 6.02608 182.444 5.86016 180.702C5.52439 178.909 4.66842 177.255 3.39901 175.946C2.56942 175.254 1.82277 174.978 1.29736 175.669C1.387 175.332 1.60552 175.044 1.90573 174.867Z" fill="#C3C3C3"/>
<path opacity="0.5" d="M55.1636 179.376C60.5393 182.097 65.2574 185.956 68.9901 190.686C66.2249 189.165 63.8192 188.391 57.929 194.889C53.0621 200.199 52.5919 200.42 49.4394 204.264C48.9417 204.817 48.4992 205.37 48.0844 205.868L44.4897 202.936L45.7892 201.305C48.9142 197.406 49.1354 196.991 53.3386 191.156C58.4543 184.022 57.21 181.699 55.1636 179.376Z" fill="#CECECE"/>
<path opacity="0.5" d="M46.343 200.667C47.0301 201.045 47.6783 201.489 48.2788 201.994C48.8886 202.486 49.4619 203.022 49.9932 203.598L48.113 205.865L44.5181 202.934L46.343 200.667Z" fill="#C3C3C3"/>
<path opacity="0.5" d="M36.7767 201.164C36.4397 201.588 36.1947 202.078 36.0577 202.602V202.962C36.0577 202.962 36.0577 202.962 36.0577 203.1C36.0299 203.292 36.0299 203.488 36.0577 203.681C36.0454 203.772 36.0454 203.865 36.0577 203.957C36.0457 204.105 36.0457 204.252 36.0577 204.4C37.0421 207.027 38.7088 209.344 40.8863 211.113C43.0637 212.882 45.6732 214.039 48.4462 214.465H49.1927H49.7459H49.8839L50.1882 214.327C50.6819 214.095 51.1167 213.755 51.4604 213.332C51.7966 212.917 52.0416 212.437 52.1794 211.921C52.8706 209.847 50.9349 206.225 47.3952 203.349C43.8558 200.473 39.9289 199.311 38.0209 200.445C37.5622 200.599 37.1392 200.844 36.7767 201.164Z" fill="#CECECE"/>
<path opacity="0.5" d="M38.8501 204.567C39.7901 203.406 42.5556 204.069 44.989 206.06C47.4225 208.051 48.6392 210.595 47.7542 211.757C47.1735 212.476 45.9015 212.504 44.4358 211.95C46.2058 212.144 46.98 210.734 46.012 208.992C44.7755 207.215 43.0451 205.84 41.0346 205.037C39.7904 204.678 38.8501 204.733 38.6011 205.728C38.5626 205.528 38.5647 205.322 38.6075 205.122C38.6503 204.923 38.7328 204.734 38.8501 204.567Z" fill="#C3C3C3"/>
<path opacity="0.5" d="M83.3435 197.765C88.4218 198.097 93.3842 199.431 97.9443 201.691C95.3448 201.415 92.4136 204.042 90.3119 210.43C89.4934 212.33 88.7916 214.279 88.2104 216.264C88.0722 216.845 87.9062 217.343 87.7954 217.841L83.9795 216.818L84.3942 215.241C84.9303 213.238 85.3001 211.194 85.5002 209.13C86.966 202.521 85.8322 198.815 83.3435 197.765Z" fill="#CECECE"/>
<path opacity="0.5" d="M84.7268 214.412C85.3903 214.49 86.0468 214.62 86.6903 214.799C87.3239 214.961 87.9437 215.174 88.543 215.435L87.907 217.841L84.0908 216.818C84.3121 216.071 84.5333 215.27 84.7268 214.412Z" fill="#C3C3C3"/>
<path opacity="0.5" d="M81.243 219.362C81.5195 218.339 83.5105 217.979 85.6674 218.56C87.8244 219.141 89.3454 220.44 89.0689 221.463C88.7924 222.487 88.0734 222.487 86.9672 222.542C88.1561 222.155 88.2944 221.021 87.1332 220.164C85.821 219.362 84.3005 218.967 82.764 219.03C81.8515 219.03 81.243 219.472 81.3813 220.219C81.2312 219.96 81.1821 219.655 81.243 219.362Z" fill="#C3C3C3"/>
<path opacity="0.5" d="M114.094 202.99C119.683 200.653 125.756 199.704 131.791 200.225C129.026 201.275 127.201 206.308 128.197 216.015C128.999 223.923 130.022 231.5 130.962 236.974C130.962 237.778 131.183 238.552 131.321 239.271L126.704 239.989C126.704 239.271 126.482 238.496 126.344 237.694C125.459 232.164 124.104 224.698 122.473 216.927C120.343 207.332 117.191 203.073 114.094 202.99Z" fill="#CECECE"/>
<path opacity="0.5" d="M126.124 237.059C126.873 236.821 127.641 236.647 128.419 236.532C129.195 236.403 129.982 236.337 130.769 236.339C130.908 237.362 131.046 238.331 131.212 239.243L126.594 239.963C126.456 239.05 126.29 238.082 126.124 237.059Z" fill="#C3C3C3"/>
<path opacity="0.5" d="M119.651 244.857C119.754 245.422 119.97 245.958 120.287 246.433C120.345 246.546 120.419 246.649 120.508 246.738V246.877L120.951 247.291L121.172 247.458L121.587 247.705C124.309 249.024 127.389 249.412 130.353 248.812C133.296 248.492 136.063 247.253 138.262 245.271L138.566 244.914L138.732 244.691C138.84 244.526 138.932 244.35 139.008 244.166C139.02 244.112 139.02 244.056 139.008 243.999C139.024 243.882 139.024 243.759 139.008 243.642C139.147 243.087 139.147 242.509 139.008 241.954C138.92 241.404 138.722 240.877 138.428 240.404C137.294 238.387 133.09 237.364 128.362 238.11C123.633 238.857 120.066 241.096 119.485 243.365C119.449 243.868 119.505 244.373 119.651 244.857Z" fill="#CECECE"/>
<path opacity="0.5" d="M123.773 245.629C123.524 244.054 125.985 242.394 129.303 241.87C132.622 241.343 135.415 242.201 135.663 243.776C135.829 244.717 134.944 245.742 133.451 246.544C134.861 245.298 134.336 243.776 132.262 243.224C129.999 242.951 127.704 243.334 125.653 244.331C124.519 245.048 123.911 245.824 124.519 246.736C124.326 246.612 124.16 246.45 124.032 246.259C123.904 246.071 123.815 245.855 123.773 245.629Z" fill="#C3C3C3"/>
<path opacity="0.5" d="M146.033 194.918C150.366 191.209 155.174 188.094 160.329 185.654C158.062 187.48 157.564 190.798 159.804 195.333C161.712 199.011 163.731 202.467 165.335 204.873L165.971 205.924L162.265 208.33L161.601 207.306C159.997 204.901 157.702 201.638 155.131 198.375C151.895 194.393 148.632 193.508 146.033 194.918Z" fill="#CECECE"/>
<path opacity="0.5" d="M161.161 206.723C161.714 206.281 162.322 205.838 162.958 205.423C163.594 205.009 164.285 204.621 164.894 204.29C165.253 204.87 165.613 205.396 165.917 205.921L162.211 208.327C161.88 207.829 161.548 207.331 161.161 206.723Z" fill="#C3C3C3"/>
<path opacity="0.5" d="M159.502 213.582C159.72 213.928 160.013 214.22 160.359 214.439L160.608 214.577L161.023 214.716H161.216H161.576C163.697 214.73 165.769 214.072 167.493 212.835C169.322 211.764 170.772 210.15 171.641 208.217V207.886C171.641 207.886 171.641 207.747 171.641 207.664C171.641 207.581 171.641 207.388 171.641 207.25C171.628 207.158 171.628 207.064 171.641 206.973C171.572 206.569 171.421 206.183 171.199 205.839C170.98 205.51 170.698 205.228 170.369 205.01C169.042 204.014 166 204.567 163.124 206.448C160.248 208.328 158.506 210.844 158.866 212.448C158.985 212.871 159.203 213.26 159.502 213.582Z" fill="#CECECE"/>
<path opacity="0.5" d="M162.404 212.862C161.796 211.922 162.902 210.097 164.893 208.825C166.884 207.553 168.986 207.276 169.594 208.217C170.202 209.157 169.594 209.71 168.958 210.622C169.511 209.406 168.681 208.521 167.188 208.825C165.636 209.3 164.254 210.213 163.206 211.452C162.681 212.254 162.487 212.945 163.206 213.36C163.046 213.335 162.892 213.277 162.755 213.192C162.617 213.107 162.498 212.994 162.404 212.862Z" fill="#C3C3C3"/>
<path opacity="0.5" d="M171.225 174.952C173.235 169.242 176.594 164.1 181.014 159.964C179.825 162.73 182.425 167.431 190.251 173.127C196.611 177.801 202.916 182.114 207.506 185.129L209.414 186.401L206.87 190.3L204.934 189.055C200.316 186.069 193.873 182.059 187.015 177.994C178.636 173.238 173.355 172.712 171.225 174.952Z" fill="#CECECE"/>
<path opacity="0.5" d="M204.41 188.695C204.741 187.988 205.12 187.304 205.544 186.648C205.972 185.993 206.453 185.373 206.982 184.796L209.415 186.4L206.871 190.299L204.41 188.695Z" fill="#C3C3C3"/>
<path opacity="0.5" d="M205.792 199.783C206.318 200.127 206.912 200.353 207.534 200.447H208.114H208.778H209.082L209.58 200.309C212.557 198.999 215.045 196.783 216.687 193.976C218.544 191.331 219.513 188.165 219.452 184.933V184.436C219.468 184.335 219.468 184.232 219.452 184.132C219.395 183.914 219.321 183.701 219.231 183.496V183.357C219.231 183.219 219.093 183.108 219.038 182.998C218.708 182.474 218.271 182.027 217.757 181.684C217.242 181.341 216.661 181.11 216.051 181.007C213.562 180.481 209.663 183.136 206.815 187.533C203.967 191.93 203.082 196.548 204.575 198.594C204.897 199.068 205.311 199.472 205.792 199.783Z" fill="#CECECE"/>
<path opacity="0.5" d="M209.415 197.019C207.977 196.079 208.42 192.844 210.411 189.802C212.402 186.76 215.139 185.101 216.577 186.041C217.49 186.622 217.655 188.06 217.185 189.802C217.185 187.783 215.499 187.037 213.618 188.364C211.721 189.98 210.353 192.128 209.692 194.53C209.415 195.996 209.692 197.075 210.798 197.296C210.56 197.345 210.316 197.346 210.078 197.299C209.84 197.251 209.615 197.156 209.415 197.019Z" fill="#C3C3C3"/>
<path opacity="0.5" d="M186.158 146.494C186.145 140.19 187.144 133.925 189.117 127.938C189.117 131.146 191.882 134.188 198.491 135.82C203.884 137.119 209.165 138.143 212.954 138.779L214.558 139.055L213.783 143.867L212.179 143.645C208.363 143.065 203.054 142.373 197.496 141.931C190.721 141.461 187.043 143.452 186.158 146.494Z" fill="#CECECE"/>
<path opacity="0.5" d="M211.571 143.73C211.602 142.914 211.685 142.102 211.82 141.297C211.958 140.439 212.151 139.637 212.345 138.891L214.557 139.25L213.783 144.062L211.571 143.73Z" fill="#C3C3C3"/>
<path opacity="0.5" d="M216.411 150.062C216.857 150.159 217.319 150.159 217.766 150.062H218.042L218.485 149.813L218.651 149.675L218.955 149.454C220.465 147.634 221.459 145.442 221.833 143.108C222.208 140.773 221.949 138.381 221.084 136.18L220.891 135.876V135.682L220.559 135.323L220.31 135.157C219.942 134.892 219.515 134.721 219.066 134.659C218.628 134.561 218.175 134.561 217.738 134.659C215.913 135.019 214.088 137.978 213.48 141.766C212.871 145.555 213.673 148.928 215.305 149.841C215.654 149.99 216.031 150.065 216.411 150.062Z" fill="#CECECE"/>
<path opacity="0.5" d="M217.986 147.132C216.742 146.939 216.078 144.643 216.493 142.017C216.908 139.389 218.263 137.454 219.507 137.647C220.281 137.647 220.834 138.698 221.056 139.998C220.447 138.615 219.092 138.643 218.29 139.998C217.518 141.644 217.248 143.481 217.516 145.279C217.765 146.358 218.207 146.994 219.065 146.773C218.922 146.907 218.751 147.009 218.565 147.071C218.379 147.133 218.181 147.154 217.986 147.132Z" fill="#C3C3C3"/>
<path opacity="0.5" d="M188.121 111.598C186.69 107.237 185.517 102.796 184.609 98.2969C185.19 100.122 186.683 102.307 188.591 102.279C190.025 102.277 191.454 102.11 192.85 101.781H193.292L194.039 104.547H193.596C192.233 104.951 190.937 105.557 189.753 106.344C188.982 106.953 188.414 107.781 188.123 108.718C187.832 109.656 187.831 110.66 188.121 111.598Z" fill="#CECECE"/>
<path opacity="0.5" d="M193.018 104.768C192.837 104.318 192.689 103.856 192.575 103.385C192.437 102.887 192.326 102.417 192.243 101.947L193.294 101.67L194.041 104.436L193.018 104.768Z" fill="#C3C3C3"/>
<path opacity="0.5" d="M198.353 108.198C198.693 108.103 199.013 107.943 199.293 107.728L199.459 107.562L199.708 107.258V107.092L199.846 106.843C200.326 105.075 200.322 103.212 199.836 101.446C199.349 99.6801 198.398 98.0773 197.081 96.8049L196.832 96.6666H196.666H196.334H196.113C195.766 96.5994 195.409 96.5994 195.062 96.6666C194.717 96.7494 194.395 96.9102 194.122 97.1366C192.96 97.9664 192.601 100.621 193.375 103.469C194.15 106.317 195.753 108.474 197.191 108.613C197.606 108.57 198.005 108.427 198.353 108.198Z" fill="#CECECE"/>
<path opacity="0.5" d="M198.547 105.626C197.607 105.875 196.418 104.464 195.782 102.473C195.145 100.482 195.588 98.6847 196.528 98.436C197.468 98.187 197.8 98.7677 198.353 99.625C197.496 98.8507 196.528 99.2932 196.39 100.593C196.353 102.001 196.738 103.388 197.496 104.575C198.021 105.239 198.547 105.57 199.045 105.128C198.947 105.351 198.769 105.528 198.547 105.626Z" fill="#C3C3C3"/>
<path opacity="0.5" d="M176.533 81.8981C171.756 78.1559 167.826 73.4435 165.002 68.0715C167.352 70.0903 169.648 71.3347 176.533 66.2188C182.064 62.0709 182.645 61.9604 186.378 58.8632L187.954 57.5635L190.94 61.1307L189.392 62.4581C185.686 65.5828 185.41 65.9423 180.322 70.754C174.1 76.7271 174.957 79.2434 176.533 81.8981Z" fill="#CECECE"/>
<path opacity="0.5" d="M188.701 63.0922C188.116 62.5709 187.571 62.0071 187.069 61.4052C186.566 60.801 186.104 60.1636 185.687 59.4973L187.954 57.6445L190.941 61.2117L188.701 63.0922Z" fill="#C3C3C3"/>
<path opacity="0.5" d="M196.722 60.7703C195.588 61.738 193.017 60.549 190.998 58.1431C188.979 55.7373 188.232 52.9997 189.394 52.0319C190.555 51.0639 191.385 51.6724 192.712 52.5019C190.998 51.9764 189.947 53.1934 190.611 55.1014C191.481 57.0827 192.914 58.7654 194.731 59.9405C195.892 60.5213 196.833 60.632 197.248 59.6918C197.236 59.8975 197.184 60.0988 197.093 60.2838C197.003 60.4691 196.877 60.6344 196.722 60.7703Z" fill="#C3C3C3"/>
<path opacity="0.5" d="M151.867 58.6417C146.957 57.3366 142.346 55.0922 138.29 52.0326C140.751 52.8071 144.041 50.8159 147.332 45.0365C148.492 43.3587 149.536 41.603 150.457 39.7825L151.176 38.3721L154.688 40.0865L153.996 41.5245C153.131 43.3678 152.401 45.2718 151.812 47.2212C149.295 53.3601 149.71 57.1762 151.867 58.6417Z" fill="#CECECE"/>
<path opacity="0.5" d="M153.61 42.3265C152.985 42.1205 152.375 41.8711 151.785 41.5798C151.189 41.2932 150.615 40.9605 150.071 40.5843L151.177 38.3721L154.689 40.0865L153.61 42.3265Z" fill="#C3C3C3"/>
<path opacity="0.5" d="M159.97 40.1436C160.13 39.7855 160.224 39.4016 160.247 39.0099C160.26 38.9276 160.26 38.8434 160.247 38.7611C160.27 38.633 160.27 38.5018 160.247 38.3739C160.256 38.3097 160.256 38.2446 160.247 38.1804V37.9039C159.232 36.1767 157.691 34.8201 155.85 34.0325C154.083 33.0779 152.065 32.6916 150.07 32.9262H149.766H149.573L149.213 33.0922L149.019 33.2305C148.729 33.4912 148.486 33.7999 148.3 34.143C148.141 34.4818 148.047 34.8476 148.024 35.2214C147.886 36.7699 149.821 38.9546 152.725 40.3926C155.628 41.8306 158.56 41.9966 159.693 40.9181C159.824 40.6752 159.917 40.414 159.97 40.1436Z" fill="#CECECE"/>
<path opacity="0.5" d="M158.006 38.1248C157.536 39.0928 155.545 39.065 153.526 38.1248C151.508 37.1845 150.263 35.5531 150.761 34.5853C151.259 33.6174 151.923 33.7833 153.029 33.9491C151.784 34.0876 151.452 35.1936 152.42 36.2443C153.557 37.2887 154.984 37.9637 156.513 38.18C157.425 38.18 158.061 38.18 158.061 37.2953C158.111 37.4295 158.131 37.573 158.122 37.7159C158.112 37.8589 158.073 37.998 158.006 38.1248Z" fill="#C3C3C3"/>
<path opacity="0.5" d="M122.639 47.691C116.701 48.9063 110.558 48.6881 104.72 47.055C107.79 46.6125 110.251 41.9946 111.246 32.3713C111.938 24.5179 112.38 16.9409 112.601 11.4656C112.601 10.636 112.601 9.8894 112.601 9.17041L117.275 9.33633C117.275 10.0276 117.275 10.8019 117.275 11.6315C117.109 17.1621 117.026 24.7114 117.275 32.5925C117.33 42.2434 119.597 46.9443 122.639 47.691Z" fill="#CECECE"/>
<path opacity="0.5" d="M117.246 12.268C116.472 12.3247 115.696 12.3247 114.923 12.268C114.134 12.2442 113.348 12.161 112.572 12.0191C112.572 10.9683 112.572 10.0004 112.572 9.08789L117.246 9.25381C117.329 10.2217 117.273 11.2172 117.246 12.268Z" fill="#C3C3C3"/>
<path opacity="0.5" d="M125.1 5.82523C125.105 5.24625 124.992 4.67229 124.768 4.13841C124.734 4.02318 124.688 3.91192 124.63 3.80654V3.66831L124.298 3.17053L124.077 2.97698L123.745 2.64511C121.326 0.919795 118.42 0.00937141 115.449 0.0457319C112.49 -0.192449 109.53 0.50393 106.987 2.03675L106.628 2.3133C106.547 2.3799 106.473 2.45398 106.407 2.53453L106.019 2.97698V3.1429L105.854 3.44707C105.591 3.96263 105.44 4.52811 105.411 5.10624C105.413 5.66398 105.516 6.21677 105.715 6.73779C106.434 8.92237 110.361 10.7198 115.145 10.8857C119.929 11.0517 123.994 9.53071 124.879 7.40143C125.047 6.89372 125.122 6.3597 125.1 5.82523Z" fill="#CECECE"/>
<path opacity="0.5" d="M121.201 4.30344C121.201 5.87966 118.436 7.06872 115.09 6.93047C111.743 6.7922 109.172 5.43717 109.227 3.88862C109.227 2.89312 110.305 2.06354 111.992 1.62109C110.361 2.58894 110.61 4.24812 112.545 5.10535C114.711 5.81787 117.039 5.87557 119.238 5.27127C120.482 4.77351 121.228 4.13749 120.813 3.11434C121.083 3.45039 121.221 3.87318 121.201 4.30344Z" fill="#C3C3C3"/>
<path opacity="0.5" d="M89.6784 49.7112C84.7056 52.5185 79.3882 54.6658 73.8606 56.0991C76.4601 54.7441 77.6768 51.6194 76.2666 46.78C75.1051 42.8533 73.7779 39.1201 72.7269 36.4654C72.5887 36.0784 72.4227 35.6912 72.2844 35.3594L76.4048 33.7002C76.5431 34.0319 76.6813 34.4192 76.8473 34.8062C77.9533 37.5716 79.6125 41.0281 81.4653 44.6783C83.8157 49.1029 86.8854 50.5132 89.6784 49.7112Z" fill="#CECECE"/>
<path opacity="0.5" d="M77.1238 35.4416C76.4878 35.7458 75.8241 36.0776 75.1051 36.3541C74.4195 36.6433 73.7179 36.8925 73.0034 37.1008L72.2844 35.3311L76.4048 33.6719C76.6261 34.2249 76.8473 34.8056 77.1238 35.4416Z" fill="#C3C3C3"/>
<path opacity="0.5" d="M80.0524 28.9993C79.8874 28.6267 79.6527 28.2888 79.3612 28.0039C79.2897 27.9465 79.2248 27.8816 79.1674 27.8104L78.7804 27.5891H78.5867H78.2827C76.2029 27.1692 74.0433 27.421 72.1161 28.3081C70.1176 29.0212 68.3888 30.3348 67.1661 32.069C67.1093 32.1553 67.0627 32.2482 67.0279 32.3455V32.539C67.0154 32.677 67.0154 32.8158 67.0279 32.9538C67.0279 32.9538 67.0279 33.1475 67.0279 33.2303C67.0206 33.6375 67.0959 34.0421 67.2491 34.4195C67.3949 34.7957 67.6216 35.1357 67.9129 35.415C69.0189 36.6317 72.1161 36.6595 75.2685 35.415C78.421 34.1705 80.6609 31.9583 80.6054 30.2991C80.552 29.8211 80.3597 29.3694 80.0524 28.9993Z" fill="#CECECE"/>
<path opacity="0.5" d="M77.0672 29.136C77.4819 30.1867 76.044 31.7354 73.8595 32.6202C71.6748 33.5052 69.5456 33.3944 69.1308 32.3437C68.8543 31.7077 69.3243 30.8505 70.2093 30.0762C69.4351 31.1822 70.071 32.2054 71.5918 32.2054C73.22 32.0486 74.7623 31.4028 76.0164 30.3527C76.7077 29.6615 76.9842 29.0253 76.4312 28.5C76.7183 28.6206 76.9466 28.8489 77.0672 29.136Z" fill="#C3C3C3"/>
<path opacity="0.5" d="M61.0004 65.0593C58.2472 70.5276 53.898 75.0311 48.5289 77.9731C50.1604 75.2079 47.5611 69.373 39.0993 60.4964C37.0806 58.3672 32.9604 53.1408 28.038 48.3016L25.9363 46.2551L29.1717 42.9092L31.3012 44.9279C36.3063 49.7396 41.7262 54.883 43.2472 56.2379C52.3726 64.3956 58.4564 66.7738 61.0004 65.0593Z" fill="#CECECE"/>
<path opacity="0.5" d="M31.246 44.9279C30.7819 45.5629 30.2832 46.1721 29.7528 46.7529C29.204 47.3143 28.6122 47.8321 27.9831 48.3016L25.8813 46.2551L29.1168 42.9092L31.246 44.9279Z" fill="#C3C3C3"/>
<path opacity="0.5" d="M31.9656 33.7829C31.517 33.3494 30.9791 33.019 30.3894 32.8149H30.0024H29.8364H29.1727H28.3432C25.2338 33.6745 22.4113 35.3511 20.1694 37.6708C17.9275 39.9907 16.348 42.8685 15.5952 46.0055C15.5814 46.1712 15.5814 46.3377 15.5952 46.5032V46.8352C15.5796 47.0468 15.5796 47.2593 15.5952 47.4712C15.5952 47.4712 15.5952 47.4712 15.5952 47.6647C15.5952 47.8582 15.5952 47.9134 15.5952 48.0242C15.8131 48.612 16.1631 49.1417 16.6183 49.5727C17.0611 50.0001 17.5886 50.33 18.1669 50.5406C20.4897 51.5639 24.8035 49.6834 28.4537 45.895C32.1039 42.1065 33.8186 37.7373 32.7401 35.4696C32.6099 34.8572 32.3456 34.2809 31.9656 33.7829Z" fill="#CECECE"/>
<path opacity="0.5" d="M28.0385 35.8833C29.2827 37.0723 28.232 40.1695 25.7155 42.769C23.1992 45.3684 20.185 46.5022 18.913 45.3129C18.1664 44.5664 18.2493 43.1007 19.0512 41.497C18.6364 43.488 20.185 44.5387 22.2867 43.571C24.4541 42.3399 26.2062 40.4916 27.3195 38.2615C27.8447 36.8788 27.845 35.8003 26.7387 35.4961C27.205 35.4592 27.6684 35.5972 28.0385 35.8833Z" fill="#C3C3C3"/>
<path opacity="0.5" d="M41.698 89.6132C40.8105 95.8892 38.6154 101.909 35.2549 107.283C35.8634 104.103 32.7109 100.232 24.5808 96.6924C17.9442 93.9271 18.5802 94.2036 13.8792 92.4614L11.8882 91.7149L13.575 87.1245L15.566 87.8435C20.267 89.5302 19.7692 88.8112 26.6273 90.8577C35.1997 93.3739 40.1218 92.4614 41.698 89.6132Z" fill="#CECECE"/>
<path opacity="0.5" d="M15.6766 87.871C15.4839 88.6681 15.2438 89.4531 14.9576 90.2215C14.6956 91.0018 14.372 91.7601 13.9898 92.4892L11.8882 91.7149L13.575 87.1245L15.6766 87.871Z" fill="#C3C3C3"/>
<path opacity="0.5" d="M12.1647 80.5969C11.7341 80.4293 11.2681 80.3724 10.8097 80.4312H10.3949L9.95245 80.5694H9.73128L9.39944 80.7629C7.49546 82.1913 6.09195 84.1853 5.38973 86.4593C4.47816 88.6563 4.27516 91.0827 4.80904 93.4004L4.94727 93.7322C4.93739 93.8056 4.93739 93.8801 4.94727 93.9534L5.19614 94.3404L5.41741 94.5617C5.7401 94.8789 6.12619 95.1241 6.55034 95.2814C6.97451 95.4384 7.42711 95.5043 7.87849 95.4744C9.73123 95.4744 12.0541 92.9027 13.4091 89.3078C14.7641 85.7128 14.5705 82.2286 13.1602 81.0119C12.8521 80.8224 12.5162 80.6823 12.1647 80.5969Z" fill="#CECECE"/>
<path opacity="0.5" d="M10.0354 83.1993C11.2245 83.6142 11.4457 85.9647 10.5608 88.4812C9.67592 90.9976 7.93375 92.6566 6.74467 92.2141C6.02571 91.9376 5.63863 90.9421 5.69393 89.6149C6.02578 91.0804 7.38078 91.3294 8.45923 90.0574C9.53336 88.5787 10.1575 86.8215 10.2567 84.9967C10.2567 83.9183 9.86949 83.1718 9.01225 83.2548C9.16964 83.1751 9.34184 83.129 9.51799 83.1196C9.69414 83.1099 9.87033 83.1372 10.0354 83.1993Z" fill="#C3C3C3"/>
<path opacity="0.5" d="M32.6563 123.738C33.2478 128.324 33.5709 132.941 33.624 137.565C33.3753 135.684 32.3243 133.251 30.4441 132.891C29.031 132.631 27.5933 132.529 26.1579 132.587H25.7154L25.4941 129.684H25.9641C27.3833 129.564 28.7743 129.219 30.0846 128.66C30.9747 128.213 31.7019 127.497 32.1632 126.614C32.6248 125.731 32.7973 124.725 32.6563 123.738Z" fill="#CECECE"/>
<path opacity="0.5" d="M26.5718 129.517C26.6576 129.992 26.7129 130.473 26.7378 130.955C26.7648 131.443 26.7648 131.933 26.7378 132.421H25.6868L25.4658 129.517H26.5718Z" fill="#C3C3C3"/>
<path opacity="0.5" d="M21.9827 125.148C21.6236 125.151 21.2714 125.247 20.9596 125.425L20.766 125.563C20.6622 125.621 20.5688 125.696 20.4894 125.784V125.922L20.2959 126.171C19.3874 127.773 19.0189 129.625 19.2451 131.453C19.29 133.292 19.9088 135.071 21.0148 136.541L21.2361 136.735V136.873C21.3265 136.953 21.4292 137.019 21.5402 137.066H21.7615C22.0989 137.137 22.4473 137.137 22.7847 137.066C23.135 137.064 23.4784 136.968 23.7802 136.79C25.0799 136.209 25.9372 133.665 25.7437 130.706C25.5499 127.747 24.3332 125.369 22.9782 124.954C22.6363 124.946 22.2965 125.012 21.9827 125.148Z" fill="#CECECE"/>
<path opacity="0.5" d="M21.2906 127.638C22.2584 127.638 23.171 129.159 23.3093 131.205C23.4475 133.251 22.7838 134.966 21.7883 135.049C20.7928 135.132 20.6269 134.468 20.2397 133.528C20.9311 134.468 21.9543 134.219 22.3414 132.975C22.6388 131.589 22.5234 130.147 22.0096 128.827C21.6224 128.08 21.18 127.665 20.5992 127.997C20.6821 127.891 20.7866 127.805 20.9059 127.743C21.0252 127.68 21.1563 127.645 21.2906 127.638Z" fill="#C3C3C3"/>
<path opacity="0.5" d="M75.6294 54.7713C89.5119 47.7296 105.171 44.963 120.626 46.8211C136.081 48.6792 150.638 55.0789 162.455 65.2103C174.273 75.3419 182.821 88.7506 187.017 103.74C191.214 118.73 190.871 134.628 186.032 149.423C181.194 164.218 172.076 177.246 159.833 186.859C147.59 196.472 132.77 202.238 117.25 203.429C101.729 204.619 86.2038 201.18 72.6378 193.547C59.0718 185.913 48.074 174.428 41.0356 160.544C31.5992 141.93 29.9425 120.33 36.4299 100.494C42.9172 80.6586 57.0174 64.2122 75.6294 54.7713Z" fill="#CECECE"/>
<path opacity="0.5" d="M75.6294 54.7713C89.5119 47.7296 105.171 44.963 120.626 46.8211C136.081 48.6792 150.638 55.0789 162.455 65.2103C174.273 75.3419 182.821 88.7506 187.017 103.74C191.214 118.73 190.871 134.628 186.032 149.423C181.194 164.218 172.076 177.246 159.833 186.859C147.59 196.472 132.77 202.238 117.25 203.429C101.729 204.619 86.2038 201.18 72.6378 193.547C59.0718 185.913 48.074 174.428 41.0356 160.544C31.5992 141.93 29.9425 120.33 36.4299 100.494C42.9172 80.6586 57.0174 64.2122 75.6294 54.7713Z" fill="#EEEEEE"/>
<path opacity="0.5" d="M101.375 46.9449C124.603 44.6772 178.803 68.929 180.462 126.143C182.121 183.357 123.552 203.571 103.531 203.35C114.554 204.432 125.68 203.176 136.184 199.664C146.687 196.151 156.331 190.462 164.484 182.966C172.638 175.471 179.118 166.34 183.5 156.168C187.883 145.997 190.069 135.015 189.916 123.941C189.764 112.867 187.275 101.95 182.614 91.9035C177.953 81.8569 171.223 72.9074 162.866 65.64C154.509 58.3725 144.712 52.9507 134.116 49.7292C123.519 46.5076 112.363 45.5589 101.375 46.9449Z" fill="#C3C3C3"/>
<path opacity="0.5" d="M152.809 147.215C154.689 141.684 159.639 138.2 163.87 139.61C168.101 141.02 170.009 146.745 168.101 152.358C166.193 157.972 161.271 161.401 157.04 159.963C152.809 158.525 150.901 152.828 152.809 147.215Z" fill="#C3C3C3"/>
<path opacity="0.1" d="M160.772 157.557C158.256 158.802 155.242 155.234 156.514 149.925C157.647 145.722 160.8 142.431 163.344 142.459C163.789 142.469 164.228 142.569 164.634 142.753C165.04 142.936 165.405 143.2 165.707 143.528C166.009 143.855 166.242 144.241 166.392 144.661C166.542 145.08 166.606 145.526 166.58 145.971C165.861 144.284 164.008 143.731 161.906 145.307C160.592 146.359 159.551 147.713 158.872 149.254C158.193 150.794 157.896 152.476 158.007 154.156C158.2 156.202 159.362 157.557 160.772 157.557Z" fill="black"/>
<path opacity="0.5" d="M77.8135 89.171C74.4121 94.0379 68.6879 95.9182 65.0378 93.3742C61.3876 90.83 61.1388 84.8019 64.54 79.9347C67.9414 75.0678 73.6378 73.2151 77.3158 75.7593C80.9935 78.3032 81.27 84.3041 77.8135 89.171Z" fill="#C3C3C3"/>
<path opacity="0.1" d="M73.1672 77.1151C75.9324 76.5896 77.9234 80.9312 75.1027 85.6322C72.8352 89.3376 68.9086 91.6051 66.4476 90.8586C65.6014 90.5746 64.9024 89.967 64.5034 89.169C64.1044 88.3708 64.0376 87.447 64.3181 86.5999C64.5671 88.3974 66.1986 89.3654 68.6596 88.5356C70.2109 87.8876 71.5835 86.8762 72.6615 85.5863C73.7395 84.2965 74.4914 82.7661 74.854 81.1248C75.2134 79.0508 74.4667 77.5021 73.1672 77.1151Z" fill="black"/>
<path opacity="0.5" d="M102.702 148.239C107.597 149.235 110.998 153.023 110.169 156.701C109.339 160.379 104.859 162.536 99.9646 161.54C95.0699 160.545 91.6687 156.729 92.5259 153.078C93.3832 149.428 97.8076 147.244 102.702 148.239Z" fill="#C3C3C3"/>
<path opacity="0.1" d="M94.9311 155.871C93.6316 153.908 96.2861 150.921 100.849 151.585C104.471 152.083 107.541 154.35 107.762 156.507C107.804 156.882 107.769 157.26 107.66 157.621C107.55 157.981 107.368 158.315 107.124 158.602C106.881 158.89 106.581 159.125 106.244 159.292C105.907 159.46 105.539 159.557 105.163 159.577C106.49 158.775 106.767 157.171 105.163 155.595C104.153 154.605 102.919 153.875 101.566 153.466C100.213 153.056 98.7809 152.981 97.3923 153.244C95.7331 153.659 94.7928 154.793 94.9311 155.871Z" fill="black"/>
<path opacity="0.5" d="M129.746 112.704C126.345 107.865 126.539 101.837 130.189 99.2648C133.839 96.6931 139.563 98.5736 142.964 103.413C146.366 108.252 146.172 114.28 142.522 116.852C138.872 119.424 133.12 117.543 129.746 112.704Z" fill="#C3C3C3"/>
<path opacity="0.1" d="M142.715 112.427C142.218 115.192 137.489 115.579 134.032 111.293C131.267 107.919 130.548 103.44 132.069 101.393C132.344 101.042 132.686 100.75 133.075 100.533C133.465 100.316 133.893 100.179 134.337 100.13C134.78 100.081 135.228 100.121 135.655 100.248C136.083 100.374 136.48 100.585 136.825 100.868C135.028 100.453 133.507 101.642 133.534 104.242C133.614 105.909 134.092 107.532 134.93 108.976C135.767 110.419 136.939 111.641 138.346 112.537C140.171 113.671 141.886 113.505 142.715 112.427Z" fill="black"/>
<path opacity="0.5" d="M102.535 174.149C108.259 175.642 111.992 180.371 110.831 184.684C109.67 188.998 104.139 191.266 98.387 189.773C92.6353 188.279 88.9296 183.523 90.0911 179.209C91.2526 174.895 96.8107 172.655 102.535 174.149Z" fill="#C3C3C3"/>
<path opacity="0.1" d="M92.8279 182.75C91.3899 180.316 94.7634 176.942 100.156 177.993C104.414 178.85 107.899 181.782 108.065 184.326C108.079 184.77 108.006 185.212 107.847 185.627C107.689 186.043 107.45 186.422 107.144 186.744C106.838 187.066 106.47 187.323 106.063 187.502C105.656 187.68 105.218 187.775 104.774 187.782C106.378 186.925 106.82 185.017 105.106 183.054C103.969 181.817 102.552 180.872 100.973 180.299C99.3942 179.726 97.7005 179.542 96.0356 179.763C93.9339 180.15 92.7449 181.394 92.8279 182.75Z" fill="black"/>
<path opacity="0.5" d="M100.351 102.692C95.1241 103.218 90.5615 100.48 90.1745 96.5533C89.7872 92.6266 93.6864 89.0039 98.9128 88.4787C104.139 87.9532 108.674 90.6909 109.061 94.6176C109.448 98.5442 105.466 102.25 100.351 102.692Z" fill="#C3C3C3"/>
<path opacity="0.1" d="M105.717 92.5716C107.652 94.1478 105.91 97.964 101.126 98.7657C97.3378 99.4019 93.5216 98.047 92.6091 96.0005C92.4607 95.6356 92.3857 95.2451 92.389 94.8512C92.3921 94.4574 92.4732 94.0681 92.6274 93.7058C92.7814 93.3435 93.006 93.015 93.2874 92.7397C93.5691 92.4643 93.9025 92.2476 94.2683 92.1016C93.1898 93.3183 93.4108 94.8668 95.4573 96.111C96.7756 96.8015 98.2415 97.1622 99.7296 97.1622C101.218 97.1622 102.684 96.8015 104.002 96.111C105.606 95.0603 106.214 93.6775 105.717 92.5716Z" fill="black"/>
<path opacity="0.5" d="M66.7528 121.801C67.527 130.097 63.1578 137.093 56.9912 137.674C50.8248 138.254 45.2389 132.143 44.4644 123.847C43.6902 115.551 48.0871 108.583 54.2537 108.002C60.4204 107.421 66.0338 113.615 66.7528 121.801Z" fill="#C3C3C3"/>
<path opacity="0.1" d="M50.9907 113.313C53.4794 110.326 59.4525 113.092 60.6693 120.613C61.6093 126.559 59.4248 132.477 56.1894 133.915C55.6091 134.14 54.9896 134.246 54.3672 134.229C53.7451 134.211 53.1324 134.069 52.5657 133.812C51.9991 133.554 51.4896 133.186 51.0671 132.729C50.6446 132.272 50.3178 131.734 50.1057 131.149C51.9862 132.864 54.6409 132.532 56.4106 129.352C57.4935 127.287 58.0592 124.991 58.0592 122.66C58.0592 120.329 57.4935 118.032 56.4106 115.968C54.9174 113.451 52.7327 112.483 50.9907 113.313Z" fill="black"/>
<path opacity="0.5" d="M161.823 112.537C160.495 108.306 161.989 104.075 165.169 103.08C168.349 102.084 172.027 104.711 173.465 108.942C174.903 113.173 173.271 117.404 170.091 118.4C166.911 119.395 163.122 116.768 161.823 112.537Z" fill="#C3C3C3"/>
<path opacity="0.1" d="M171.115 115.275C170.147 117.155 166.663 116.353 165.197 112.509C164.6 111.306 164.363 109.956 164.515 108.622C164.667 107.287 165.202 106.026 166.054 104.988C166.328 104.799 166.637 104.667 166.963 104.601C167.288 104.535 167.624 104.535 167.95 104.603C168.276 104.67 168.584 104.802 168.857 104.992C169.13 105.182 169.362 105.425 169.539 105.706C168.377 105.015 166.994 105.485 166.441 107.366C166.111 108.577 166.076 109.85 166.341 111.077C166.605 112.305 167.162 113.45 167.962 114.417C169.068 115.606 170.285 115.883 171.115 115.275Z" fill="black"/>
<path opacity="0.5" d="M136.382 84.1097C131.35 80.8187 129.276 75.0393 131.764 71.2509C134.253 67.4625 140.365 67.0752 145.397 70.3659C150.43 73.6566 152.504 79.4362 150.015 83.2247C147.527 87.0131 141.415 87.4279 136.382 84.1097Z" fill="#C3C3C3"/>
<path opacity="0.1" d="M148.55 78.9681C149.13 81.7333 144.789 83.9455 139.922 81.1803C136.078 78.9959 133.672 75.0414 134.391 72.5525C134.521 72.1199 134.735 71.7169 135.021 71.367C135.307 71.0172 135.659 70.7273 136.057 70.514C136.456 70.3008 136.892 70.1682 137.342 70.1242C137.792 70.0802 138.245 70.1254 138.678 70.2573C136.853 70.5615 135.912 72.2485 136.853 74.7095C137.547 76.2695 138.609 77.6376 139.948 78.6973C141.287 79.7567 142.862 80.4759 144.54 80.7931C146.614 81.1251 148.162 80.2954 148.55 78.9681Z" fill="black"/>
<path opacity="0.5" d="M105.135 71.3347C101.347 72.1092 97.8073 70.4223 97.2268 67.5741C96.6461 64.7258 99.2178 61.7944 103.034 61.0202C106.85 60.2459 110.362 61.9052 110.943 64.7534C111.523 67.6016 108.924 70.5605 105.135 71.3347Z" fill="#C3C3C3"/>
<path opacity="0.1" d="M108.233 63.5366C109.754 64.5321 108.759 67.4635 105.302 68.4313C104.207 68.8441 103.015 68.9304 101.872 68.6803C100.728 68.4299 99.6815 67.8536 98.8588 67.0211C98.7194 66.7657 98.6324 66.485 98.603 66.1958C98.5736 65.9064 98.6021 65.6141 98.687 65.3357C98.7721 65.0576 98.9117 64.7992 99.0979 64.5758C99.2842 64.3522 99.5132 64.1681 99.7713 64.0344C99.0801 65.0023 99.3843 66.2191 100.961 66.7998C101.984 67.1896 103.085 67.3276 104.173 67.2026C105.261 67.0775 106.302 66.6928 107.21 66.0808C108.427 65.3341 108.786 64.2834 108.233 63.5366Z" fill="black"/>
<path opacity="0.5" d="M70.9548 161.844C73.72 164.61 74.218 168.454 72.1441 170.528C70.0701 172.601 66.1987 172.021 63.4885 169.283C60.7785 166.545 60.2255 162.646 62.2717 160.6C64.3182 158.554 68.2171 159.107 70.9548 161.844Z" fill="#C3C3C3"/>
<path opacity="0.1" d="M62.6606 163.475C62.6606 161.623 65.6471 160.849 68.3295 163.226C69.2785 163.909 70.0083 164.853 70.4305 165.943C70.8528 167.033 70.949 168.222 70.7075 169.366C70.5714 169.621 70.3856 169.848 70.1611 170.031C69.9366 170.215 69.6777 170.351 69.3998 170.434C69.1219 170.516 68.8301 170.542 68.5421 170.511C68.2538 170.479 67.9748 170.391 67.7211 170.25C68.9103 170.25 69.7675 169.366 69.4633 167.679C69.222 166.61 68.7302 165.614 68.0281 164.772C67.3263 163.931 66.4343 163.268 65.4259 162.839C64.1261 162.369 63.0476 162.673 62.6606 163.475Z" fill="black"/>
<path opacity="0.5" d="M128.226 143.869C128.735 142.315 129.825 141.019 131.268 140.251C132.711 139.483 134.395 139.303 135.968 139.748C138.734 140.993 139.397 144.836 137.766 148.321C136.134 151.805 132.678 153.686 130.023 152.441C127.368 151.197 126.594 147.381 128.226 143.869Z" fill="#C3C3C3"/>
<path opacity="0.1" d="M132.594 151.113C130.879 151.722 129.11 149.178 130.409 145.859C131.46 143.094 133.728 141.324 135.387 141.518C135.675 141.558 135.952 141.656 136.203 141.805C136.453 141.954 136.67 142.152 136.843 142.386C137.016 142.621 137.14 142.887 137.208 143.17C137.276 143.453 137.287 143.747 137.24 144.034C136.88 142.873 135.719 142.403 134.225 143.26C133.287 143.853 132.509 144.668 131.959 145.632C131.409 146.596 131.105 147.681 131.073 148.79C131.073 150.09 131.709 151.003 132.594 151.113Z" fill="black"/>
<path opacity="0.5" d="M85.0588 126.78C85.5843 130.596 83.6763 134.025 80.8004 134.44C77.9245 134.854 75.1315 132.034 74.606 128.218C74.0808 124.402 75.9887 120.945 78.8647 120.558C81.7406 120.171 84.5336 122.936 85.0588 126.78Z" fill="#C3C3C3"/>
<path opacity="0.1" d="M77.4547 123.074C78.5609 121.609 81.4368 122.798 82.1281 126.31C82.4746 127.426 82.4892 128.619 82.1702 129.743C81.8509 130.867 81.2118 131.875 80.3306 132.642C80.0656 132.763 79.7795 132.829 79.4887 132.839C79.1978 132.848 78.9079 132.8 78.6357 132.698C78.3632 132.595 78.1139 132.439 77.9019 132.24C77.6898 132.041 77.5191 131.802 77.3994 131.536C78.3396 132.283 79.5841 132.062 80.3306 130.541C80.795 129.55 81.0122 128.461 80.964 127.368C80.9161 126.275 80.6038 125.21 80.0541 124.263C79.3076 123.102 78.2567 122.687 77.4547 123.074Z" fill="black"/>
<path opacity="0.5" d="M133.424 176.916C136.908 175.229 140.752 176.003 142.024 178.63C143.296 181.257 141.498 184.714 138.014 186.401C134.53 188.088 130.686 187.313 129.414 184.714C128.142 182.115 129.939 178.492 133.424 176.916Z" fill="#C3C3C3"/>
<path opacity="0.1" d="M132.235 185.208C130.52 184.6 130.741 181.503 133.866 179.678C134.83 179.008 135.968 178.634 137.142 178.599C138.315 178.565 139.473 178.872 140.475 179.484C140.669 179.698 140.818 179.948 140.914 180.219C141.011 180.491 141.053 180.779 141.037 181.067C141.022 181.355 140.95 181.637 140.825 181.897C140.7 182.157 140.525 182.389 140.309 182.581C140.752 181.475 140.143 180.369 138.456 180.092C137.369 179.96 136.266 180.092 135.24 180.477C134.215 180.862 133.298 181.489 132.566 182.305C131.709 183.411 131.626 184.545 132.235 185.208Z" fill="black"/>
<path opacity="0.5" d="M107.181 114.75C109.34 114.389 111.558 114.698 113.537 115.634C115.516 116.57 117.161 118.089 118.252 119.987C119.343 121.885 119.827 124.072 119.639 126.253C119.451 128.434 118.601 130.505 117.202 132.189C115.803 133.873 113.923 135.089 111.813 135.673C109.703 136.257 107.465 136.182 105.399 135.458C103.333 134.734 101.539 133.395 100.256 131.621C98.9727 129.847 98.2628 127.724 98.2217 125.535C97.9908 122.919 98.8027 120.318 100.481 118.298C102.159 116.278 104.567 115.003 107.181 114.75Z" fill="#C3C3C3"/>
<path opacity="0.1" d="M104.637 132.254C107.403 133.941 111.855 132.254 113.321 127.388C114.786 122.521 110.555 115.995 106.214 117.405C107.797 118.158 109.09 119.41 109.894 120.968C110.698 122.527 110.969 124.305 110.666 126.033C110.279 130.098 107.513 132.669 104.637 132.254Z" fill="black"/>
</g>
</svg>
