<svg width="91" height="98" viewBox="0 0 91 98" fill="none" xmlns="http://www.w3.org/2000/svg">
<path d="M15.6748 59.3164C17.2999 61.1113 18.4397 63.2591 18.9946 65.5721C18.2402 64.6064 15.9766 64.6064 12.3249 66.1703C9.30686 67.4461 6.43216 68.7653 4.38748 69.7383L3.52736 70.156L2.65967 68.5561L3.51981 68.1384C5.55697 67.1366 8.3637 65.7091 11.2308 64.1379C14.7317 62.1778 16.0295 60.484 15.6748 59.3164Z" fill="#F06868"/>
<path opacity="0.2" d="M3.73107 68.0083C3.91953 68.2566 4.08609 68.5196 4.22904 68.7942C4.37194 69.067 4.49544 69.3489 4.59874 69.6376L3.52736 70.1562L2.65967 68.5563L3.73107 68.0083Z" fill="black"/>
<path d="M0.637866 67.0423C0.470911 67.1249 0.324285 67.2405 0.207796 67.3811C0.178543 67.4093 0.153201 67.4411 0.132361 67.4753V67.5108C0.100181 67.5665 0.0724196 67.6246 0.0493568 67.6839C0.0461139 67.7126 0.0461139 67.742 0.0493568 67.7707C0.0323656 67.8172 0.0197512 67.8655 0.0116403 67.9145C-0.0519202 68.838 0.145659 69.7609 0.583712 70.5865C1.02177 71.4122 1.68416 72.1094 2.50149 72.6066L2.64485 72.6568H2.74294H2.93156H3.10511C3.29333 72.6482 3.47789 72.6042 3.64835 72.5271C3.80974 72.4433 3.95308 72.3308 4.07087 72.1956C4.58393 71.6623 4.4783 70.315 3.76152 68.9743C3.04475 67.6337 1.9809 66.7543 1.21885 66.8117C1.00849 66.8429 0.809091 66.9218 0.637866 67.0423Z" fill="#F06868"/>
<path opacity="0.3" d="M0.811214 68.3402C1.27146 68.1163 2.04861 68.6857 2.53903 69.6086C3.02946 70.5309 3.05207 71.4679 2.59183 71.6911C2.31266 71.8281 1.90525 71.6911 1.52045 71.2948C2.0486 71.5902 2.5013 71.2948 2.43339 70.6178C2.29321 69.9169 1.94181 69.2704 1.42236 68.7579C1.07529 68.4839 0.77349 68.3763 0.554688 68.6497C0.596196 68.5194 0.68783 68.4087 0.811214 68.3402Z" fill="black"/>
<path d="M22.5941 70.106C24.8057 71.1634 26.7476 72.6716 28.2831 74.5235C27.1815 73.9254 26.163 73.6226 23.7561 76.1669C21.7717 78.2353 21.5756 78.3295 20.2778 79.8285C20.0816 80.0517 19.9006 80.2609 19.7346 80.4627L18.2256 79.3166L18.8217 78.6463C20.0967 77.1259 20.1948 76.9601 21.9075 74.6825C23.9824 71.9151 23.4543 71.0068 22.5941 70.106Z" fill="#F06868"/>
<path opacity="0.2" d="M19.0099 78.4224C19.276 78.5753 19.5283 78.749 19.7644 78.9416C20.016 79.1343 20.2506 79.3465 20.4661 79.5758L19.7116 80.462L18.2026 79.3165L19.0099 78.4224Z" fill="black"/>
<path d="M15.0865 78.6464C14.9472 78.814 14.8469 79.0085 14.7923 79.2158C14.788 79.2617 14.788 79.3075 14.7923 79.3528C14.7923 79.3528 14.7923 79.3889 14.7923 79.4103C14.7884 79.4825 14.7884 79.5546 14.7923 79.6268C14.7955 79.6653 14.7955 79.7039 14.7923 79.7418C14.7923 79.7925 14.7923 79.85 14.7923 79.9149C15.1895 80.9442 15.8689 81.8524 16.7596 82.5447C17.6503 83.237 18.7194 83.6878 19.855 83.8499H20.1644C20.2415 83.8376 20.3173 83.8187 20.3907 83.7924H20.4511L20.5793 83.7349C20.7801 83.6425 20.9576 83.5098 21.0999 83.3459C21.2367 83.1857 21.3347 82.9985 21.3866 82.7979C21.6734 81.9765 20.8812 80.5711 19.4325 79.4464C17.9839 78.3223 16.3768 77.8611 15.5996 78.3009C15.4064 78.3822 15.2319 78.5002 15.0865 78.6464Z" fill="#F06868"/>
<path opacity="0.3" d="M15.9318 79.9433C16.3242 79.4889 17.4408 79.7488 18.4518 80.5268C19.4629 81.3053 19.9608 82.2998 19.5609 82.7542C19.3195 83.0349 18.8065 83.0496 18.1953 82.8258C18.9498 82.8979 19.2441 82.3505 18.8442 81.6656C18.3387 80.9696 17.6303 80.4307 16.807 80.1164C16.2939 79.9794 15.9092 80.0008 15.8111 80.3971C15.7884 80.2369 15.8317 80.0742 15.9318 79.9433Z" fill="black"/>
<path d="M34.1982 77.292C36.2779 77.4204 38.3096 77.9446 40.1739 78.8344C39.11 78.7188 37.9104 79.7427 37.0578 82.2508C36.715 82.9902 36.4251 83.7511 36.1901 84.5284C36.1297 84.7443 36.0694 84.9461 36.0166 85.1406L34.4623 84.737L34.6358 84.1315C34.8441 83.345 34.9954 82.5456 35.0885 81.7389C35.6393 79.1519 35.1715 77.6956 34.1982 77.292Z" fill="#F06868"/>
<path opacity="0.2" d="M34.7259 83.7998C34.9936 83.831 35.2585 83.8818 35.5181 83.9515C35.7768 84.0145 36.0292 84.0989 36.2727 84.2035C36.1746 84.5349 36.084 84.845 36.001 85.1404L34.4468 84.7368C34.5448 84.4487 34.6656 84.1386 34.7259 83.7998Z" fill="black"/>
<path d="M32.3417 85.133C32.308 85.2804 32.308 85.4327 32.3417 85.5801V85.681C32.3417 85.681 32.3417 85.681 32.3417 85.7171C32.3582 85.7697 32.381 85.8205 32.4096 85.8682C32.4193 85.8914 32.432 85.9128 32.4474 85.933L32.5152 86.0339C33.0865 86.5911 33.8034 86.9917 34.5915 87.1941C35.3796 87.3972 36.2102 87.3947 36.997 87.1874L37.1102 87.1293L37.1856 87.0932L37.3139 86.9996L37.3818 86.9275C37.4839 86.8125 37.5586 86.6767 37.6006 86.5311C37.6342 86.3868 37.6342 86.2363 37.6006 86.0914C37.5402 85.4865 36.5971 84.7869 35.3371 84.4554C34.0771 84.1239 32.8699 84.2756 32.5002 84.7728C32.4208 84.8804 32.3667 85.0034 32.3417 85.133Z" fill="#F06868"/>
<path opacity="0.3" d="M33.293 85.7384C33.4062 85.3348 34.2211 85.1904 35.1038 85.421C35.9866 85.6522 36.6128 86.1421 36.4996 86.5598C36.4317 86.8124 36.0922 86.9635 35.6319 86.9855C36.1299 86.8338 36.1752 86.3873 35.6999 86.0552C35.1624 85.7427 34.5407 85.5874 33.9117 85.6088C33.5344 85.6589 33.293 85.7819 33.3458 86.0699C33.2853 85.9696 33.2664 85.8516 33.293 85.7384Z" fill="black"/>
<path d="M46.7383 79.3667C49.0273 78.4487 51.5155 78.075 53.989 78.2787C52.7894 78.6823 52.1028 80.6572 52.4801 84.4478C52.812 87.5401 53.2346 90.5167 53.5665 92.6426C53.6118 92.9668 53.6646 93.2622 53.7099 93.5435L51.8236 93.8248L51.6728 92.9307C51.3106 90.7687 50.7598 87.8495 50.0883 84.8081C49.2961 81.0388 48.0134 79.3667 46.7383 79.3667Z" fill="#F06868"/>
<path opacity="0.2" d="M51.6724 92.6573C51.9784 92.5656 52.2911 92.4959 52.6079 92.4482C52.9248 92.3998 53.2452 92.376 53.5661 92.376C53.6265 92.7796 53.6869 93.1545 53.7472 93.5074L51.861 93.7888C51.8006 93.4359 51.7402 93.061 51.6724 92.6573Z" fill="black"/>
<path d="M49.0013 95.7133C49.0396 95.9316 49.1243 96.1402 49.2502 96.3255L49.3408 96.4484C49.3443 96.4649 49.3443 96.4821 49.3408 96.4986C49.3976 96.5548 49.4581 96.608 49.5219 96.657L49.6199 96.7224L49.7784 96.8227C50.8848 97.3083 52.125 97.4423 53.317 97.205C54.5249 97.0796 55.6604 96.5928 56.5613 95.8142C56.6066 95.7708 56.6444 95.7206 56.6821 95.6772C56.7054 95.6448 56.7306 95.613 56.7575 95.5836C56.8012 95.517 56.839 95.4466 56.8707 95.3745V95.317C56.8707 95.2662 56.9084 95.2228 56.916 95.18C56.9804 94.9671 56.9963 94.7439 56.9625 94.525C56.9286 94.306 56.8459 94.0968 56.7198 93.9115C56.252 93.1183 54.5393 92.722 52.6002 93.0106C50.6611 93.2987 49.1522 94.1782 48.9636 95.0717C48.9272 95.2858 48.9401 95.5047 49.0013 95.7133Z" fill="#F06868"/>
<path opacity="0.3" d="M50.6995 96.0093C50.6014 95.3965 51.6049 94.7409 52.963 94.5678C54.3211 94.3947 55.468 94.7048 55.566 95.2889C55.6264 95.6632 55.2718 96.0668 54.6607 96.3555C55.2341 95.8723 55.0152 95.2381 54.1702 95.0583C53.2449 94.9439 52.305 95.0944 51.4691 95.4907C51.0013 95.7714 50.7523 96.0742 51.0013 96.4277C50.8472 96.331 50.7388 96.1812 50.6995 96.0093Z" fill="black"/>
<path d="M59.8135 76.1749C61.5937 74.7328 63.5648 73.5212 65.6758 72.5708C64.7403 73.2919 64.4913 74.5891 65.4498 76.3548C66.204 77.7963 67.0715 79.1442 67.7131 80.0953L67.9775 80.4989L66.4684 81.4359L66.1963 81.0396C65.5477 80.1026 64.6046 78.8268 63.5482 77.551C62.2203 75.9731 60.8773 75.6557 59.8135 76.1749Z" fill="#F06868"/>
<path opacity="0.2" d="M66.0156 80.8084C66.257 80.625 66.5093 80.4543 66.7699 80.2971C67.0125 80.1394 67.2648 79.995 67.5247 79.8647L67.9473 80.4916L66.4382 81.4286L66.0156 80.8084Z" fill="black"/>
<path d="M65.3362 83.4754C65.4239 83.6118 65.5424 83.7274 65.6832 83.8142L65.7818 83.8644H65.8196L65.9854 83.9225H66.068H66.2038C67.0707 83.9292 67.9171 83.6772 68.6259 83.2014C69.3788 82.7855 69.973 82.1525 70.3239 81.3923C70.3386 81.3525 70.3514 81.3116 70.3616 81.27V81.1837C70.3648 81.1281 70.3648 81.073 70.3616 81.018C70.3616 81.018 70.3616 81.018 70.3616 80.9746C70.3616 80.9311 70.3616 80.9024 70.3616 80.8737C70.3328 80.7159 70.2746 80.5642 70.1881 80.4266C70.0998 80.2945 69.9813 80.1838 69.8411 80.1024C69.2975 79.7135 68.0599 79.9294 66.8831 80.6572C65.7063 81.3856 64.9815 82.3727 65.1326 83.0069C65.1576 83.1769 65.2274 83.3384 65.3362 83.4754Z" fill="#F06868"/>
<path opacity="0.3" d="M66.521 83.2081C66.2719 82.8332 66.7246 82.1268 67.5396 81.6223C68.3547 81.1183 69.2145 81.0174 69.4636 81.385C69.6224 81.6155 69.5091 81.9758 69.1998 82.3287C69.4258 81.8535 69.0942 81.5073 68.4827 81.6082C67.8457 81.7911 67.2784 82.1495 66.8533 82.6387C66.6266 82.9562 66.5587 83.2228 66.8533 83.3592C66.7258 83.3519 66.6068 83.298 66.521 83.2081Z" fill="black"/>
<path d="M70.1274 68.3762C70.9495 66.139 72.3235 64.1244 74.1336 62.5024C73.6431 63.6192 74.7072 65.4283 77.906 67.6551C80.5169 69.4789 83.0972 71.1651 84.9687 72.3473L85.7607 72.8445L84.7119 74.3723L83.9193 73.8751C82.0331 72.7222 79.3927 71.1437 76.5781 69.5939C73.145 67.6986 71.0104 67.4967 70.1274 68.3762Z" fill="#F06868"/>
<path opacity="0.2" d="M83.7085 73.745C83.8417 73.4686 83.9953 73.2007 84.1688 72.9451C84.3456 72.6931 84.5396 72.4521 84.7496 72.2246L85.7612 72.8588L84.7118 74.3866L83.7085 73.745Z" fill="black"/>
<path d="M84.2892 78.0843C84.5049 78.214 84.7463 78.3002 84.9986 78.3363H85.1644H85.2399C85.3277 78.3437 85.416 78.3437 85.5037 78.3363H85.6324L85.836 78.2862C87.016 77.7235 88.0187 76.8709 88.7403 75.8159C89.4612 74.7603 89.8754 73.5408 89.9401 72.2821C89.9401 72.2106 89.9401 72.1457 89.9401 72.0809C89.9439 72.0399 89.9439 71.9989 89.9401 71.958C89.9196 71.876 89.8889 71.7959 89.8498 71.7201V71.6552L89.7666 71.5182C89.6321 71.3127 89.4522 71.1378 89.2403 71.0045C89.0277 70.8718 88.7876 70.7837 88.5366 70.747C87.5257 70.5311 85.934 71.569 84.7642 73.2845C83.5951 74.9994 83.2551 76.8159 83.8512 77.6085C83.9639 77.7926 84.1124 77.9541 84.2892 78.0843Z" fill="#F06868"/>
<path opacity="0.3" d="M85.7762 76.9965C85.1801 76.6289 85.3613 75.3672 86.1687 74.1783C86.976 72.9893 88.1151 72.3331 88.7035 72.7006C89.0659 72.9245 89.1491 73.5006 88.9525 74.1783C88.9525 73.3783 88.2585 73.0902 87.4889 73.6162C86.7148 74.2523 86.1533 75.092 85.8742 76.0308C85.7685 76.5996 85.8742 77.0179 86.3345 77.0754C86.145 77.1194 85.9446 77.0907 85.7762 76.9965Z" fill="black"/>
<path d="M76.2393 57.2625C76.2348 54.7938 76.6478 52.3406 77.4616 49.9976C77.4161 51.2589 78.5859 52.4553 81.2942 53.0823C83.5127 53.594 85.6627 53.9976 87.2172 54.2426L87.8735 54.3507L87.5565 56.239L86.9003 56.1382C85.3387 55.9147 83.1279 55.648 80.8645 55.4751C78.1101 55.2661 76.6087 56.0516 76.2393 57.2625Z" fill="#F06868"/>
<path opacity="0.2" d="M86.6514 56.102C86.6514 55.7993 86.7039 55.4822 86.757 55.1434C86.8089 54.8276 86.8793 54.5148 86.9683 54.2065L87.8736 54.3506L87.5567 56.2389L86.6514 56.102Z" fill="black"/>
<path d="M88.6285 58.639C88.8122 58.6755 89.0024 58.6755 89.1868 58.639L89.2995 58.5957H89.3526C89.4109 58.5726 89.4666 58.5436 89.5184 58.5092L89.6017 58.4516L89.722 58.3579C90.3776 57.6674 90.7893 56.7976 90.8995 55.8714C91.1024 54.9628 90.9968 54.0158 90.5973 53.1687C90.5742 53.1253 90.5467 53.0842 90.5147 53.0461L90.4615 52.9669L90.3258 52.8299H90.2803C90.2509 52.8043 90.2182 52.7825 90.1824 52.7651C90.0313 52.6629 89.8578 52.5944 89.6746 52.5645C89.4922 52.5345 89.3046 52.544 89.1259 52.5921C88.3717 52.7363 87.6175 53.8894 87.3908 55.3741C87.1642 56.8588 87.4664 58.1705 88.1451 58.5309C88.2968 58.5975 88.4613 58.6342 88.6285 58.639Z" fill="#F06868"/>
<path opacity="0.3" d="M89.2771 57.4855C88.7713 57.4135 88.5222 56.5197 88.6657 55.4891C88.8091 54.4585 89.4205 53.7017 89.9033 53.7738C90.2202 53.8243 90.4462 54.1846 90.5295 54.6963C90.2804 54.163 89.7298 54.163 89.3751 54.6963C89.0537 55.3421 88.941 56.0647 89.0505 56.772C89.1561 57.19 89.3373 57.4423 89.6843 57.3486C89.6293 57.3961 89.5652 57.4327 89.4948 57.4562C89.425 57.4797 89.3507 57.4897 89.2771 57.4855Z" fill="black"/>
<path d="M77.0539 43.5905C76.4681 41.886 75.9847 40.151 75.605 38.394C75.854 39.1147 76.4578 39.9508 77.2498 39.9436C77.8337 39.9424 78.4157 39.8795 78.9856 39.7562L79.1815 39.7274L79.4907 40.8229L79.3102 40.8733C78.748 41.0335 78.216 41.2766 77.7332 41.594C77.4259 41.8253 77.1973 42.1384 77.0763 42.4938C76.9553 42.8492 76.9476 43.2309 77.0539 43.5905Z" fill="#F06868"/>
<path opacity="0.2" d="M79.0457 40.9162C78.9855 40.7504 78.9253 40.5703 78.8722 40.3756C78.8197 40.1811 78.7742 39.9937 78.7441 39.8135L79.1814 39.7271L79.4907 40.8225L79.0457 40.9162Z" fill="black"/>
<path d="M81.2419 42.2641C81.3795 42.2241 81.5082 42.158 81.619 42.0695C81.6472 42.0544 81.6728 42.0348 81.6945 42.0118C81.733 41.9782 81.7656 41.9393 81.7925 41.8965C81.8066 41.8783 81.8194 41.859 81.8303 41.8388C81.8303 41.8388 81.8303 41.7739 81.8828 41.7379C82.1178 41.0544 82.1178 40.317 81.8828 39.6334C81.7221 38.9296 81.3341 38.2918 80.7739 37.81L80.6759 37.7523L80.608 37.7091L80.4723 37.6586H80.4268H80.3359C80.1944 37.6301 80.0478 37.6301 79.9063 37.6586C79.768 37.6947 79.6393 37.7586 79.5285 37.846C79.0535 38.1704 78.9101 39.201 79.2193 40.3253C79.5285 41.4497 80.1925 42.2785 80.7815 42.3289C80.9378 42.3421 81.0959 42.3198 81.2419 42.2641Z" fill="#F06868"/>
<path opacity="0.3" d="M81.3241 41.2548C80.9316 41.3485 80.4488 40.8007 80.2299 40.0295C80.0115 39.2583 80.1549 38.5448 80.5397 38.4439C80.7811 38.3863 81.0603 38.5737 81.294 38.9124C80.9393 38.6025 80.5397 38.7755 80.4866 39.28C80.4776 39.832 80.6345 40.3748 80.9393 40.844C81.1505 41.1034 81.3695 41.2259 81.5808 41.0602C81.5232 41.1529 81.4316 41.2221 81.3241 41.2548Z" fill="black"/>
<path d="M72.3003 31.9725C70.352 30.5196 68.7475 28.6898 67.5918 26.6031C68.5503 27.3887 69.4857 27.8788 72.3003 25.8824C74.6014 24.2535 74.805 24.2031 76.3365 22.9995L76.9857 22.4878L78.208 23.8787L77.5664 24.3977C76.0573 25.6301 75.937 25.7671 73.8542 27.6481C71.3117 29.9545 71.6363 30.9347 72.3003 31.9725Z" fill="#F06868"/>
<path opacity="0.2" d="M77.2876 24.5924C77.0494 24.3899 76.8279 24.1706 76.6236 23.9365C76.4168 23.7101 76.2273 23.4692 76.0576 23.2158L76.986 22.4951L78.2083 23.8861L77.2876 24.5924Z" fill="black"/>
<path d="M81.1807 25.1323C81.351 24.9965 81.4874 24.8268 81.5808 24.635C81.6039 24.5931 81.6244 24.5497 81.641 24.5052V24.4476C81.6647 24.3774 81.6801 24.3048 81.6865 24.2313C81.6865 24.2313 81.6865 24.1593 81.6865 24.1232C81.6865 24.0872 81.6865 24.0079 81.6865 23.9503C81.4982 22.8682 81.0097 21.8542 80.2721 21.0138C79.5346 20.1733 78.5742 19.5372 77.4915 19.1719H77.318H76.971H76.9031H76.7674C76.5516 19.2309 76.3518 19.3314 76.1783 19.4673C76.0131 19.5997 75.8793 19.7643 75.7865 19.9503C75.3409 20.671 75.8467 22.2277 77.0465 23.5971C78.2457 24.9664 79.7324 25.7016 80.5775 25.4133C80.7972 25.3611 81.0027 25.2653 81.1807 25.1323Z" fill="#F06868"/>
<path opacity="0.3" d="M80.6078 23.6841C80.1398 24.0589 79.0987 23.5976 78.2536 22.6534C77.4084 21.7093 77.1446 20.6426 77.612 20.2678C77.8989 20.03 78.4194 20.1165 78.963 20.448C78.2613 20.239 77.8387 20.7147 78.0948 21.4642C78.4546 22.239 79.0456 22.8956 79.7928 23.3525C80.2678 23.5832 80.645 23.6264 80.8261 23.2588C80.8121 23.4219 80.7339 23.5738 80.6078 23.6841Z" fill="black"/>
<path d="M62.2052 22.8839C60.193 22.3717 58.3044 21.4904 56.6445 20.2893C57.6631 20.5992 59.0061 19.8208 60.3491 17.5577C60.8222 16.9025 61.2507 16.2188 61.6318 15.5109L61.9185 14.9487L63.3671 15.6262L63.0804 16.1884C62.7234 16.9083 62.4233 17.6527 62.1826 18.4154C61.1489 20.8154 61.33 22.3073 62.2052 22.8839Z" fill="#F06868"/>
<path opacity="0.2" d="M62.922 16.4983C62.6623 16.4232 62.4098 16.3267 62.1675 16.21C61.9249 16.0952 61.6904 15.9652 61.4658 15.8208C61.6242 15.5109 61.7751 15.2226 61.9109 14.9487L63.3596 15.6262L62.922 16.4983Z" fill="black"/>
<path d="M65.5252 15.6414C65.593 15.5063 65.6289 15.3587 65.6308 15.2089C65.6347 15.1754 65.6347 15.1416 65.6308 15.1081V15.0648C65.6257 15.013 65.6129 14.962 65.593 14.9134C65.5962 14.8871 65.5962 14.8605 65.593 14.8342C65.579 14.7968 65.561 14.7606 65.5405 14.7261C65.0885 14.077 64.4636 13.5546 63.7305 13.2126C62.997 12.8706 62.1816 12.7213 61.3679 12.7801L61.2471 12.8162H61.1642L61.0208 12.8882H60.9831L60.9001 12.9459C60.7805 13.0428 60.6806 13.1601 60.6059 13.2918C60.5423 13.4283 60.5065 13.575 60.5002 13.7243C60.4398 14.3297 61.2547 15.1657 62.4166 15.7423C63.5788 16.3188 64.8087 16.3693 65.2684 15.944C65.3709 15.8573 65.4579 15.7551 65.5252 15.6414Z" fill="#F06868"/>
<path opacity="0.3" d="M64.7102 14.8553C64.522 15.2301 63.6993 15.2229 62.8695 14.8553C62.0395 14.4878 61.534 13.8535 61.7302 13.4788C61.8434 13.2481 62.2055 13.1616 62.6583 13.2265C62.1452 13.2841 62.0169 13.7094 62.4093 14.1274C62.8779 14.5309 63.4605 14.794 64.0841 14.8841C64.4612 14.8841 64.7179 14.8265 64.7256 14.5382C64.7628 14.6419 64.7576 14.7553 64.7102 14.8553Z" fill="black"/>
<path d="M50.2386 18.5954C47.8085 19.0732 45.294 18.9892 42.9048 18.3503C44.1648 18.1774 45.2286 16.3756 45.5757 12.5846C45.8624 9.51424 46.0435 6.54488 46.1341 4.41154C46.1341 4.08721 46.1341 3.7845 46.1718 3.50342L48.0731 3.56829C48.0731 3.84937 48.0731 4.15208 48.0731 4.46919C48.0127 6.63136 47.9675 9.58635 48.0278 12.6711C48.0731 16.4693 49.0012 18.3359 50.2386 18.5954Z" fill="#F06868"/>
<path opacity="0.2" d="M48.0361 4.73611C47.7173 4.76184 47.3967 4.76184 47.0778 4.73611C46.756 4.72903 46.4354 4.69527 46.1196 4.63521C46.1196 4.2316 46.1573 3.84962 46.1725 3.48926L48.0738 3.55412C48.0663 3.95052 48.0512 4.3325 48.0361 4.73611Z" fill="black"/>
<path d="M51.2651 2.2496C51.2736 2.02694 51.2298 1.8053 51.1369 1.60094C51.1213 1.55356 51.1012 1.50771 51.0765 1.46401C51.0725 1.44498 51.0725 1.42537 51.0765 1.40635L50.9332 1.21896L50.8502 1.13247L50.7143 1.00995C49.6948 0.391791 48.521 0.0445473 47.3142 0.0040076C46.1073 -0.036532 44.9109 0.231099 43.8484 0.779317C43.7949 0.813737 43.7444 0.852311 43.6974 0.894633L43.6069 0.973915C43.5503 1.02891 43.4998 1.08928 43.456 1.1541C43.4418 1.17227 43.4292 1.19155 43.4183 1.21175C43.3912 1.25019 43.3685 1.29126 43.3504 1.33428C43.2438 1.53364 43.182 1.75216 43.1693 1.97572C43.1619 2.19526 43.2031 2.41382 43.29 2.61716C43.5919 3.47483 45.1989 4.17394 47.1606 4.2388C49.1224 4.30366 50.7747 3.71267 51.1369 2.87663C51.2265 2.67892 51.2703 2.465 51.2651 2.2496Z" fill="#F06868"/>
<path opacity="0.3" d="M49.6503 1.6222C49.6503 2.24202 48.5109 2.70329 47.1528 2.66004C45.7948 2.6168 44.7234 2.07626 44.746 1.46364C44.746 1.08166 45.1911 0.742913 45.84 0.577148C45.1836 0.951926 45.2742 1.60778 46.0664 1.93932C46.9527 2.21808 47.9055 2.24065 48.8052 2.00418C49.3258 1.8168 49.6276 1.55733 49.4541 1.16814C49.5168 1.22757 49.5663 1.29833 49.6001 1.37629C49.6338 1.45426 49.6508 1.53785 49.6503 1.6222Z" fill="black"/>
<path d="M36.7409 19.3817C34.7082 20.4779 32.5345 21.3162 30.2748 21.8753C31.3311 21.3492 31.8367 20.124 31.2557 18.2285C30.7804 16.6861 30.2296 15.2303 29.807 14.1996C29.7467 14.0411 29.6863 13.8969 29.626 13.76L31.3085 13.1113C31.3613 13.2483 31.4292 13.3924 31.4971 13.5438C31.9422 14.5744 32.6062 15.9798 33.3833 17.4069C34.3491 19.151 35.594 19.6988 36.7409 19.3817Z" fill="#F06868"/>
<path opacity="0.2" d="M31.6027 13.7813C31.3332 13.9179 31.0561 14.0406 30.7728 14.1488C30.4912 14.2564 30.2042 14.3502 29.9127 14.4299C29.8146 14.1848 29.7165 13.9542 29.626 13.7092L31.3085 13.0605L31.6027 13.7813Z" fill="black"/>
<path d="M32.8023 11.2877C32.7407 11.1377 32.6455 11.0024 32.5232 10.8914L32.4402 10.8265H32.4025L32.2516 10.74H32.1762L32.0478 10.6967C31.1983 10.5764 30.3305 10.6753 29.5346 10.9832C28.7385 11.2912 28.0433 11.7969 27.5208 12.4481C27.5208 12.4481 27.4831 12.5202 27.4605 12.5634C27.4378 12.6066 27.4605 12.6139 27.4605 12.6427C27.4375 12.6932 27.4222 12.7466 27.4152 12.8012C27.4117 12.8155 27.4117 12.8303 27.4152 12.8445C27.4117 12.8781 27.4117 12.9118 27.4152 12.9454C27.4051 13.1056 27.4335 13.2658 27.4982 13.4139C27.5571 13.5593 27.65 13.69 27.7698 13.7958C28.2225 14.2787 29.4825 14.2932 30.7878 13.7958C32.0931 13.2985 32.991 12.4481 32.9683 11.7994C32.9623 11.6177 32.905 11.4409 32.8023 11.2877Z" fill="#F06868"/>
<path opacity="0.3" d="M31.5871 11.3379C31.7606 11.7488 31.1646 12.3614 30.2667 12.7073C29.3689 13.0533 28.5012 13.0028 28.3276 12.592C28.222 12.3397 28.4031 12.0082 28.7803 11.7127C28.4635 12.138 28.72 12.5416 29.3386 12.5416C30.0037 12.478 30.634 12.2271 31.1495 11.8209C31.4286 11.5469 31.5493 11.3019 31.3154 11.1001C31.4341 11.1439 31.5311 11.2288 31.5871 11.3379Z" fill="black"/>
<path d="M25.0005 25.392C23.8738 27.5279 22.0954 29.2871 19.9001 30.4371C20.564 29.3848 19.5002 27.0785 16.037 23.5974C15.2146 22.7758 13.5245 20.7145 11.51 18.8334C11.2082 18.5451 10.9215 18.2857 10.6499 18.0334L11.9778 16.7217C12.2418 16.974 12.5286 17.2406 12.8455 17.5217C14.8977 19.3956 17.116 21.4064 17.7422 21.9398C21.4695 25.1325 23.9216 26.0334 25.0005 25.392Z" fill="#F06868"/>
<path opacity="0.2" d="M12.8232 17.5219C12.6352 17.776 12.4284 18.0168 12.2045 18.2427C11.9706 18.4637 11.7182 18.6661 11.45 18.848C11.1482 18.5598 10.8615 18.3003 10.5898 18.0481L11.9178 16.7363C12.2196 16.9742 12.5063 17.2408 12.8232 17.5219Z" fill="black"/>
<path d="M13.1177 13.1612C12.9339 12.9893 12.7122 12.8588 12.4689 12.7793C12.419 12.7564 12.3654 12.7418 12.3104 12.736H12.2425C12.1546 12.7286 12.0663 12.7286 11.9784 12.736H11.8502C11.7798 12.7321 11.7093 12.7321 11.6389 12.736C10.367 13.0729 9.21239 13.7282 8.29451 14.6341C7.37657 15.5401 6.72862 16.6639 6.41778 17.8892C6.41413 17.9564 6.41413 18.0238 6.41778 18.091V18.2207C6.41778 18.3072 6.41778 18.3937 6.41778 18.473V18.5378C6.43455 18.5894 6.45472 18.64 6.47815 18.6892C6.5692 18.9172 6.71076 19.1237 6.89311 19.2946C7.07372 19.4616 7.28988 19.5894 7.5269 19.6694C8.47756 20.0658 10.2431 19.3306 11.737 17.8531C13.2309 16.3757 13.9326 14.6676 13.4875 13.7666C13.4092 13.5427 13.2833 13.3365 13.1177 13.1612Z" fill="#F06868"/>
<path opacity="0.3" d="M11.4498 13.9545C11.9552 14.4229 11.5327 15.6337 10.4991 16.65C9.4654 17.6662 8.23559 18.0914 7.72248 17.6445C7.40562 17.3563 7.44333 16.7869 7.7753 16.1527C7.60928 16.9311 8.23552 17.3419 9.09571 16.9671C9.9819 16.4848 10.6987 15.7625 11.1555 14.8914C11.3743 14.3436 11.3818 13.9256 10.9141 13.7742C11.1104 13.7654 11.3026 13.83 11.4498 13.9545Z" fill="black"/>
<path d="M17.1012 34.992C16.7344 37.4464 15.8349 39.8006 14.4604 41.9037C14.717 40.6641 13.4192 39.1434 10.0919 37.7596C7.38318 36.6353 7.63218 36.7866 5.71575 36.1019L4.90088 35.8137L5.58747 34.019L6.40237 34.3001C8.3339 34.9559 8.13017 34.6821 10.9294 35.4821C14.4454 36.4622 16.4523 36.1235 17.1012 34.992Z" fill="#F06868"/>
<path opacity="0.2" d="M6.44763 34.3145C6.36715 34.6269 6.26894 34.9348 6.15337 35.237C6.04369 35.5383 5.91257 35.8321 5.76102 36.1163L4.90088 35.8137L5.58747 34.019L6.44763 34.3145Z" fill="black"/>
<path d="M5.01381 31.4677C4.83443 31.409 4.64471 31.3846 4.45545 31.3957H4.33473H4.28194L4.10084 31.4533L4.0103 31.4965L3.8745 31.5614C3.08777 32.112 2.50822 32.8906 2.22214 33.7813C1.84422 34.6403 1.7623 35.5919 1.98824 36.4984C2.00514 36.5453 2.02529 36.591 2.04859 36.6354C2.0579 36.6654 2.07057 36.6944 2.08633 36.7218C2.11711 36.775 2.15244 36.8256 2.19195 36.8731L2.22969 36.9164C2.25343 36.9464 2.28134 36.973 2.31267 36.9957C2.44524 37.1226 2.60475 37.221 2.78046 37.284C2.95109 37.3462 3.13421 37.3708 3.31618 37.3561C4.07068 37.3561 5.03644 36.3543 5.57968 34.9416C6.12291 33.529 6.05504 32.1812 5.48159 31.7056C5.34239 31.5993 5.18378 31.5187 5.01381 31.4677Z" fill="#F06868"/>
<path opacity="0.3" d="M4.13859 32.477C4.62902 32.65 4.71956 33.5725 4.34985 34.5527C3.98014 35.5329 3.27846 36.1816 2.79558 35.9942C2.49378 35.8933 2.34287 35.4969 2.3655 34.978C2.50131 35.5545 3.04456 35.6482 3.50481 35.1509C3.95759 34.5769 4.22035 33.8867 4.25932 33.1689C4.25932 32.7437 4.10841 32.4482 3.75378 32.4915C3.8762 32.4432 4.0126 32.4381 4.13859 32.477Z" fill="black"/>
<path d="M13.4041 48.376C13.64 50.1549 13.771 51.9451 13.7965 53.7382C13.6984 53.0174 13.2683 52.0517 12.4912 51.9147C11.9145 51.8102 11.3272 51.7691 10.7407 51.7922H10.5219L10.439 50.6607H10.6276C11.2062 50.6059 11.7731 50.47 12.3101 50.2571C12.672 50.088 12.9709 49.8171 13.1665 49.4807C13.3621 49.1443 13.4451 48.7588 13.4041 48.376Z" fill="#F06868"/>
<path opacity="0.2" d="M10.9068 50.5957C10.9068 50.7759 10.9597 50.9633 10.9747 51.1651C10.9858 51.3548 10.9858 51.5448 10.9747 51.7345H10.5371L10.4541 50.6029L10.9068 50.5957Z" fill="black"/>
<path d="M9.0131 48.8878C8.86732 48.8953 8.72537 48.9348 8.59815 49.0032L8.51511 49.0464C8.47253 49.0718 8.43437 49.1034 8.40198 49.1401L8.34915 49.1977L8.27367 49.2842C7.9406 49.9232 7.79232 50.6356 7.84405 51.3477C7.89579 52.0598 8.14568 52.7458 8.56793 53.3347L8.65091 53.4068C8.6666 53.4253 8.68433 53.4422 8.70373 53.4572L8.83204 53.5365H8.86975L8.96028 53.5725C9.09442 53.6236 9.23867 53.6457 9.38279 53.6374C9.5232 53.6266 9.65951 53.5873 9.7827 53.5221C10.3184 53.2914 10.6654 52.3041 10.5824 51.1437C10.4995 49.9833 10.009 49.0536 9.45072 48.895C9.30794 48.8566 9.15716 48.8541 9.0131 48.8878Z" fill="#F06868"/>
<path opacity="0.3" d="M8.74136 49.8604C9.14126 49.8604 9.49584 50.4586 9.57133 51.2586C9.64675 52.0586 9.35248 52.7 8.95264 52.7577C8.7112 52.7577 8.46969 52.5415 8.31885 52.1667C8.598 52.527 9.02051 52.4333 9.17897 51.9433C9.30005 51.404 9.25286 50.8427 9.04317 50.3288C8.88471 50.0333 8.70364 49.8748 8.4622 50.0045C8.53257 49.9242 8.63245 49.8726 8.74136 49.8604Z" fill="black"/>
<path d="M30.9991 21.3633C36.6837 18.6097 43.0955 17.5282 49.4236 18.2557C55.7518 18.9831 61.7119 21.4868 66.5504 25.4501C71.3888 29.4133 74.8885 34.6583 76.6056 40.5214C78.3235 46.3846 78.1826 52.6026 76.201 58.3893C74.2188 64.1761 70.4848 69.2707 65.4715 73.0302C60.4576 76.7897 54.3896 79.0447 48.0343 79.5095C41.6792 79.9743 35.3224 78.6288 29.768 75.6423C24.2135 72.6565 19.7108 68.1637 16.8294 62.7328C12.9664 55.452 12.289 47.0034 14.9462 39.2454C17.6035 31.4873 23.3777 25.0551 30.9991 21.3633Z" fill="#F06868"/>
<path d="M30.9991 21.3633C36.6837 18.6097 43.0955 17.5282 49.4236 18.2557C55.7518 18.9831 61.7119 21.4868 66.5504 25.4501C71.3888 29.4133 74.8885 34.6583 76.6056 40.5214C78.3235 46.3846 78.1826 52.6026 76.201 58.3893C74.2188 64.1761 70.4848 69.2707 65.4715 73.0302C60.4576 76.7897 54.3896 79.0447 48.0343 79.5095C41.6792 79.9743 35.3224 78.6288 29.768 75.6423C24.2135 72.6565 19.7108 68.1637 16.8294 62.7328C12.9664 55.452 12.289 47.0034 14.9462 39.2454C17.6035 31.4873 23.3777 25.0551 30.9991 21.3633Z" fill="#F06868"/>
<path opacity="0.4" d="M30.9991 21.3633C36.6837 18.6097 43.0955 17.5282 49.4236 18.2557C55.7518 18.9831 61.7119 21.4868 66.5504 25.4501C71.3888 29.4133 74.8885 34.6583 76.6056 40.5214C78.3235 46.3846 78.1826 52.6026 76.201 58.3893C74.2188 64.1761 70.4848 69.2707 65.4715 73.0302C60.4576 76.7897 54.3896 79.0447 48.0343 79.5095C41.6792 79.9743 35.3224 78.6288 29.768 75.6423C24.2135 72.6565 19.7108 68.1637 16.8294 62.7328C12.9664 55.452 12.289 47.0034 14.9462 39.2454C17.6035 31.4873 23.3777 25.0551 30.9991 21.3633Z" fill="white"/>
<path opacity="0.1" d="M41.5317 18.2712C51.0385 17.3847 73.2812 26.8766 73.915 49.2623C74.5489 71.6478 50.6084 79.5325 42.4145 79.461C46.9299 79.8885 51.4891 79.401 55.7936 78.0298C60.0981 76.658 64.0505 74.4336 67.3927 71.5016C70.7355 68.5702 73.3913 64.9973 75.1885 61.0168C76.9851 57.0366 77.8814 52.7388 77.8187 48.4047C77.7559 44.0706 76.736 39.798 74.8255 35.8666C72.9143 31.9352 70.1561 28.4335 66.7307 25.5909C63.3049 22.7483 59.2895 20.6288 54.9471 19.3711C50.6046 18.1135 46.0331 17.746 41.5317 18.2928V18.2712Z" fill="black"/>
<path d="M62.5825 57.5218C63.3369 55.3236 65.3819 53.9903 67.1094 54.5452C68.8374 55.1002 69.6147 57.3344 68.8451 59.5326C68.0755 61.7306 66.0382 63.0639 64.3178 62.5092C62.5976 61.9545 61.828 59.72 62.5825 57.5218Z" fill="#F06868"/>
<path opacity="0.1" d="M62.5825 57.5218C63.3369 55.3236 65.3819 53.9903 67.1094 54.5452C68.8374 55.1002 69.6147 57.3344 68.8451 59.5326C68.0755 61.7306 66.0382 63.0639 64.3178 62.5092C62.5976 61.9545 61.828 59.72 62.5825 57.5218Z" fill="black"/>
<path opacity="0.25" d="M65.8267 61.5361C64.8004 62.0333 63.5179 60.6279 64.091 58.5522C64.5513 56.909 65.8414 55.6261 66.8832 55.6333C67.0656 55.6388 67.2449 55.679 67.4107 55.7516C67.5766 55.824 67.7257 55.9274 67.8493 56.0555C67.9729 56.1836 68.0683 56.3341 68.1304 56.4979C68.1925 56.6618 68.22 56.8359 68.2111 57.0099C67.9089 56.354 67.1546 56.1378 66.2948 56.7577C65.7557 57.1665 65.3292 57.6945 65.052 58.296C64.7748 58.8974 64.6544 59.5543 64.7024 60.2099C64.7927 61.0315 65.2684 61.5361 65.8267 61.5361Z" fill="black"/>
<path d="M31.9195 34.8264C30.5312 36.7292 28.1922 37.4571 26.6908 36.4625C25.1893 35.4679 25.0988 33.1111 26.487 31.2084C27.8754 29.3057 30.2143 28.5777 31.7158 29.5723C33.2172 30.567 33.3002 32.9165 31.9195 34.8264Z" fill="#F06868"/>
<path opacity="0.1" d="M31.9195 34.8264C30.5312 36.7292 28.1922 37.4571 26.6908 36.4625C25.1893 35.4679 25.0988 33.1111 26.487 31.2084C27.8754 29.3057 30.2143 28.5777 31.7158 29.5723C33.2172 30.567 33.3002 32.9165 31.9195 34.8264Z" fill="black"/>
<path opacity="0.25" d="M29.9883 30.0984C31.1201 29.9037 31.9425 31.5902 30.7429 33.4281C29.8224 34.8695 28.2078 35.7705 27.2118 35.4822C27.0386 35.4284 26.8783 35.3423 26.7402 35.2289C26.6021 35.1154 26.4891 34.9768 26.4077 34.8212C26.3262 34.6656 26.278 34.496 26.2658 34.3225C26.2536 34.1489 26.2776 33.9747 26.3365 33.8101C26.4346 34.5308 27.0911 34.9272 28.1097 34.5669C28.7432 34.3157 29.3043 33.9226 29.7455 33.4209C30.1867 32.9192 30.4952 32.3234 30.6448 31.6839C30.8259 30.8623 30.5165 30.2497 29.9883 30.0984Z" fill="black"/>
<path d="M42.0675 57.9181C44.0669 58.3145 45.4401 59.7992 45.1232 61.2334C44.8063 62.6676 42.9427 63.511 40.9508 63.122C38.9589 62.7324 37.5857 61.2407 37.8951 59.8064C38.2045 58.3722 40.0756 57.5289 42.0675 57.9181Z" fill="#F06868"/>
<path opacity="0.1" d="M42.0675 57.9181C44.0669 58.3145 45.4401 59.7992 45.1232 61.2334C44.8063 62.6676 42.9427 63.511 40.9508 63.122C38.9589 62.7324 37.5857 61.2407 37.8951 59.8064C38.2045 58.3722 40.0756 57.5289 42.0675 57.9181Z" fill="black"/>
<path opacity="0.25" d="M38.8915 60.9095C38.3558 60.1383 39.4498 58.9708 41.321 59.223C42.83 59.4176 44.0523 60.3185 44.1579 61.1545C44.1703 61.3001 44.1524 61.4469 44.1051 61.5863C44.0579 61.7258 43.9823 61.8542 43.8827 61.9655C43.7832 62.0768 43.6615 62.1679 43.5249 62.234C43.3883 62.3001 43.2393 62.3398 43.0865 62.3508C43.6298 62.0407 43.743 61.4139 43.0865 60.7942C42.6753 60.4179 42.1759 60.1412 41.6298 59.9869C41.0838 59.8328 40.507 59.8055 39.9478 59.9077C39.231 60.0374 38.8387 60.4626 38.8915 60.9095Z" fill="black"/>
<path d="M53.1512 44.0516C51.7554 42.1561 51.8309 39.7994 53.3247 38.7976C54.8187 37.7957 57.1652 38.5237 58.5611 40.4191C59.9569 42.3147 59.8738 44.6715 58.3799 45.6732C56.886 46.675 54.5471 45.9183 53.1512 44.0516Z" fill="#F06868"/>
<path opacity="0.1" d="M53.1512 44.0516C51.7554 42.1561 51.8309 39.7994 53.3247 38.7976C54.8187 37.7957 57.1652 38.5237 58.5611 40.4191C59.9569 42.3147 59.8738 44.6715 58.3799 45.6732C56.886 46.675 54.5471 45.9183 53.1512 44.0516Z" fill="black"/>
<path opacity="0.25" d="M58.4554 43.9077C58.2593 44.9888 56.3202 45.1473 54.9093 43.4753C53.7926 42.1491 53.4758 40.3978 54.102 39.5977C54.2151 39.4615 54.3553 39.3479 54.5145 39.2636C54.6737 39.1792 54.8489 39.1258 55.0297 39.1064C55.2107 39.087 55.3938 39.1019 55.5687 39.1504C55.7436 39.1989 55.9066 39.2798 56.0486 39.3888C55.2941 39.2374 54.683 39.6914 54.698 40.7221C54.7273 41.3774 54.9216 42.0164 55.2644 42.5847C55.6072 43.1531 56.0885 43.6341 56.6673 43.987C57.4218 44.405 58.1235 44.3329 58.4554 43.9077Z" fill="black"/>
<path d="M42.0149 68.0592C44.3614 68.6506 45.8855 70.4952 45.4177 72.182C44.9499 73.8681 42.6713 74.7623 40.3249 74.1709C37.9783 73.5801 36.4542 71.7349 36.9145 70.0487C37.3747 68.3619 39.6608 67.4684 42.0149 68.0592Z" fill="#F06868"/>
<path opacity="0.1" d="M42.0149 68.0592C44.3614 68.6506 45.8855 70.4952 45.4177 72.182C44.9499 73.8681 42.6713 74.7623 40.3249 74.1709C37.9783 73.5801 36.4542 71.7349 36.9145 70.0487C37.3747 68.3619 39.6608 67.4684 42.0149 68.0592Z" fill="black"/>
<path opacity="0.25" d="M38.0309 71.4394C37.4499 70.4877 38.8307 69.1691 41.049 69.5868C42.7994 69.9116 44.2179 71.0284 44.2857 72.0522C44.2918 72.2259 44.2615 72.3996 44.1966 72.5622C44.1317 72.7249 44.0335 72.8735 43.9078 72.9995C43.7821 73.1261 43.6313 73.2271 43.4643 73.2968C43.2974 73.3665 43.1174 73.4038 42.9352 73.4069C43.5992 73.0754 43.7727 72.3402 43.071 71.5617C42.6064 71.0779 42.0261 70.7085 41.3798 70.4853C40.7334 70.262 40.04 70.1911 39.3589 70.2792C38.4912 70.4015 38.0007 70.884 38.0309 71.4394Z" fill="black"/>
<path d="M41.1092 40.1094C38.974 40.3184 37.1104 39.2373 36.9444 37.7021C36.7784 36.167 38.3855 34.7544 40.5208 34.5454C42.656 34.3364 44.5196 35.4175 44.6856 36.9526C44.8516 38.4877 43.2445 39.9003 41.1092 40.1094Z" fill="#F06868"/>
<path opacity="0.1" d="M41.1092 40.1094C38.974 40.3184 37.1104 39.2373 36.9444 37.7021C36.7784 36.167 38.3855 34.7544 40.5208 34.5454C42.656 34.3364 44.5196 35.4175 44.6856 36.9526C44.8516 38.4877 43.2445 39.9003 41.1092 40.1094Z" fill="black"/>
<path opacity="0.25" d="M43.3199 36.1235C44.0744 36.7362 43.3954 38.2425 41.4337 38.5524C39.8794 38.7974 38.3251 38.2713 37.9479 37.4713C37.8866 37.3285 37.8554 37.1755 37.8565 37.0211C37.8574 36.8667 37.8905 36.7141 37.9536 36.572C38.0168 36.4299 38.1088 36.3012 38.2244 36.1933C38.3399 36.0854 38.4768 36.0004 38.6269 35.9434C38.1818 36.4191 38.2799 37.0822 39.1098 37.5146C39.653 37.7793 40.2552 37.9142 40.8649 37.908C41.4746 37.9017 42.0736 37.7544 42.6107 37.4785C43.2671 37.1254 43.5161 36.5776 43.3199 36.1235Z" fill="black"/>
<path d="M27.3776 47.5836C27.687 50.7836 25.8687 53.5584 23.3713 53.789C20.8739 54.0197 18.5575 51.6269 18.2482 48.398C17.9389 45.1691 19.7572 42.416 22.247 42.1926C24.737 41.9691 27.0683 44.3835 27.3776 47.5836Z" fill="#F06868"/>
<path opacity="0.1" d="M27.3776 47.5836C27.687 50.7836 25.8687 53.5584 23.3713 53.789C20.8739 54.0197 18.5575 51.6269 18.2482 48.398C17.9389 45.1691 19.7572 42.416 22.247 42.1926C24.737 41.9691 27.0683 44.3835 27.3776 47.5836Z" fill="black"/>
<path opacity="0.25" d="M20.911 44.2319C21.922 43.0571 24.3742 44.1454 24.8646 47.1148C25.2494 49.4427 24.3666 51.7563 23.0387 52.3112C22.8045 52.401 22.554 52.4455 22.3017 52.4422C22.0493 52.439 21.8002 52.3879 21.5686 52.2921C21.3371 52.1963 21.1278 52.0575 20.9527 51.8838C20.7777 51.7103 20.6404 51.5052 20.5488 51.2806C21.3033 51.9508 22.4049 51.8139 23.1292 50.5599C23.572 49.754 23.8034 48.8574 23.8034 47.9472C23.8034 47.0371 23.572 46.1405 23.1292 45.3346C22.5105 44.3184 21.6202 43.9364 20.911 44.2319Z" fill="black"/>
<path d="M66.2794 43.9576C65.7365 42.3072 66.355 40.6495 67.6605 40.2603C68.9653 39.8711 70.4597 40.8945 70.9949 42.5522C71.5308 44.2099 70.92 45.8603 69.6145 46.2495C68.309 46.6387 66.823 45.6153 66.2794 43.9576Z" fill="#F06868"/>
<path opacity="0.1" d="M66.2794 43.9576C65.7365 42.3072 66.355 40.6495 67.6605 40.2603C68.9653 39.8711 70.4597 40.8945 70.9949 42.5522C71.5308 44.2099 70.92 45.8603 69.6145 46.2495C68.309 46.6387 66.823 45.6153 66.2794 43.9576Z" fill="black"/>
<path opacity="0.25" d="M70.0819 45.0319C69.6901 45.7526 68.2636 45.4499 67.6605 43.9508C67.1848 42.7688 67.3813 41.4499 68.0152 41.0174C68.1279 40.9455 68.2546 40.8955 68.3878 40.8703C68.521 40.8452 68.658 40.8453 68.7912 40.8707C68.9243 40.8962 69.0505 40.9464 69.1638 41.0186C69.2765 41.0907 69.3732 41.1834 69.4487 41.2913C68.9653 41.0246 68.407 41.212 68.1733 41.9472C68.035 42.4196 68.0196 42.917 68.1272 43.3966C68.2348 43.8763 68.4633 44.3236 68.7918 44.7003C69.2297 45.1616 69.7426 45.2625 70.0819 45.0319Z" fill="black"/>
<path d="M55.8676 32.8446C53.8078 31.5473 52.9552 29.2986 53.9738 27.7995C54.9924 26.3004 57.4973 26.1562 59.5571 27.4536C61.6169 28.7509 62.477 30.9995 61.4585 32.4986C60.4399 33.9978 57.9349 34.1347 55.8676 32.8446Z" fill="#F06868"/>
<path opacity="0.1" d="M55.8676 32.8446C53.8078 31.5473 52.9552 29.2986 53.9738 27.7995C54.9924 26.3004 57.4973 26.1562 59.5571 27.4536C61.6169 28.7509 62.477 30.9995 61.4585 32.4986C60.4399 33.9978 57.9349 34.1347 55.8676 32.8446Z" fill="black"/>
<path opacity="0.25" d="M60.847 30.8335C61.0885 31.9217 59.338 32.7722 57.3235 31.6911C55.7466 30.8407 54.7582 29.2983 55.06 28.3181C55.1125 28.1483 55.2 27.9901 55.3172 27.853C55.4345 27.7158 55.5792 27.6023 55.7428 27.5191C55.9065 27.4359 56.0858 27.3847 56.2704 27.3684C56.455 27.3522 56.6412 27.3712 56.818 27.4244C56.0635 27.5397 55.6485 28.1956 56.0635 29.1614C56.3479 29.7731 56.7835 30.3097 57.3328 30.7252C57.8822 31.1407 58.5288 31.4227 59.2173 31.5469C60.0548 31.6695 60.6961 31.3524 60.847 30.8335Z" fill="black"/>
<path d="M43.0787 27.8429C41.5245 28.1455 40.0607 27.4897 39.8344 26.4014C39.6081 25.3131 40.6568 24.1384 42.211 23.8356C43.7653 23.5329 45.2291 24.1888 45.4479 25.2771C45.6667 26.3654 44.6255 27.5402 43.0787 27.8429Z" fill="#F06868"/>
<path opacity="0.1" d="M43.0787 27.8429C41.5245 28.1455 40.0607 27.4897 39.8344 26.4014C39.6081 25.3131 40.6568 24.1384 42.211 23.8356C43.7653 23.5329 45.2291 24.1888 45.4479 25.2771C45.6667 26.3654 44.6255 27.5402 43.0787 27.8429Z" fill="black"/>
<path opacity="0.25" d="M44.3844 24.7793C45.0106 25.1685 44.6031 26.3217 43.1922 26.6964C42.068 26.9847 40.891 26.6964 40.5514 26.1487C40.4951 26.0485 40.4601 25.9387 40.4486 25.8255C40.437 25.7123 40.4492 25.5981 40.4843 25.4895C40.5194 25.3808 40.5767 25.2799 40.6531 25.1927C40.7294 25.1054 40.823 25.0335 40.9287 24.9811C40.642 25.3559 40.7627 25.8388 41.4116 26.0982C41.8293 26.2538 42.2803 26.3101 42.7258 26.2624C43.1713 26.2147 43.5981 26.0644 43.9693 25.8243C44.4221 25.5 44.5654 25.082 44.3844 24.7793Z" fill="black"/>
<path d="M29.0747 63.2375C30.1913 64.3115 30.4177 65.8319 29.5726 66.6319C28.7276 67.4318 27.1356 67.2159 26.0189 66.1493C24.9023 65.0827 24.6834 63.5543 25.5285 62.7543C26.3735 61.9544 27.958 62.1709 29.0747 63.2375Z" fill="#F06868"/>
<path opacity="0.1" d="M29.0747 63.2375C30.1913 64.3115 30.4177 65.8319 29.5726 66.6319C28.7276 67.4318 27.1356 67.2159 26.0189 66.1493C24.9023 65.0827 24.6834 63.5543 25.5285 62.7543C26.3735 61.9544 27.958 62.1709 29.0747 63.2375Z" fill="black"/>
<path opacity="0.25" d="M25.6797 63.872C25.6797 63.151 26.9095 62.8556 28.0111 63.7779C28.8787 64.4989 29.2862 65.6016 28.9768 66.1851C28.9208 66.2854 28.8445 66.3735 28.7524 66.4444C28.6602 66.516 28.5541 66.5686 28.4403 66.6004C28.3265 66.6316 28.2071 66.6414 28.0894 66.6285C27.9716 66.6151 27.8578 66.5796 27.7546 66.5239C28.2375 66.5239 28.592 66.1851 28.4638 65.5295C28.3699 65.1105 28.1712 64.7191 27.8848 64.3888C27.5984 64.0592 27.2328 63.7999 26.819 63.6341C26.2908 63.4464 25.8456 63.5693 25.6797 63.872Z" fill="black"/>
<path d="M52.5251 56.2104C53.1966 54.8411 54.6151 54.1204 55.694 54.6032C56.773 55.0862 57.105 56.5852 56.4485 57.9546C55.7921 59.324 54.3661 60.0447 53.2872 59.5619C52.2083 59.079 51.8612 57.5799 52.5251 56.2104Z" fill="#F06868"/>
<path opacity="0.1" d="M52.5251 56.2104C53.1966 54.8411 54.6151 54.1204 55.694 54.6032C56.773 55.0862 57.105 56.5852 56.4485 57.9546C55.7921 59.324 54.3661 60.0447 53.2872 59.5619C52.2083 59.079 51.8612 57.5799 52.5251 56.2104Z" fill="black"/>
<path opacity="0.25" d="M54.3208 59.043C53.6115 59.288 52.8872 58.2863 53.4229 56.9889C53.8454 55.9511 54.781 55.2088 55.4601 55.288C55.6971 55.3235 55.9098 55.4475 56.0513 55.6326C56.1927 55.8177 56.2515 56.049 56.2146 56.2754C56.0637 55.8286 55.5884 55.634 54.9848 55.9727C54.6014 56.2053 54.2834 56.5239 54.0586 56.9007C53.8337 57.2776 53.7087 57.7013 53.6945 58.1349C53.687 58.6394 53.9586 58.9998 54.3208 59.043Z" fill="black"/>
<path d="M34.8547 49.5223C35.066 51.0214 34.2888 52.3619 33.1042 52.5205C31.9197 52.6791 30.7954 51.5836 30.5767 50.0917C30.3578 48.5998 31.1425 47.252 32.3271 47.0935C33.5117 46.9349 34.6661 48.0232 34.8547 49.5223Z" fill="#F06868"/>
<path opacity="0.1" d="M34.8547 49.5223C35.066 51.0214 34.2888 52.3619 33.1042 52.5205C31.9197 52.6791 30.7954 51.5836 30.5767 50.0917C30.3578 48.5998 31.1425 47.252 32.3271 47.0935C33.5117 46.9349 34.6661 48.0232 34.8547 49.5223Z" fill="black"/>
<path opacity="0.25" d="M31.7385 48.0808C32.1911 47.5042 33.3682 47.9655 33.6625 49.3421C33.8888 50.4232 33.5267 51.5043 32.908 51.8214C32.7996 51.868 32.6825 51.8937 32.5637 51.8968C32.4449 51.8999 32.3266 51.8805 32.2157 51.8395C32.1048 51.7987 32.0035 51.7372 31.9177 51.6586C31.8319 51.58 31.7633 51.4859 31.7158 51.3818C32.0931 51.6845 32.5986 51.598 32.9155 50.9998C33.1028 50.6108 33.1896 50.1846 33.1686 49.7569C33.1476 49.3292 33.0194 48.9126 32.7948 48.5421C32.493 48.0881 32.0629 47.9223 31.7385 48.0808Z" fill="black"/>
<path d="M54.6605 69.0893C56.0865 68.4336 57.6785 68.7364 58.1765 69.7596C58.6745 70.7828 57.9576 72.1454 56.5316 72.801C55.1057 73.4567 53.5136 73.1613 53.0157 72.1381C52.5177 71.1143 53.2345 69.7449 54.6605 69.0893Z" fill="#F06868"/>
<path opacity="0.1" d="M54.6605 69.0893C56.0865 68.4336 57.6785 68.7364 58.1765 69.7596C58.6745 70.7828 57.9576 72.1454 56.5316 72.801C55.1057 73.4567 53.5136 73.1613 53.0157 72.1381C52.5177 71.1143 53.2345 69.7449 54.6605 69.0893Z" fill="black"/>
<path opacity="0.25" d="M54.1698 72.3692C53.4681 72.1313 53.5662 70.9277 54.8413 70.2066C55.8524 69.6592 57.0671 69.6519 57.5349 70.1204C57.6152 70.2042 57.6775 70.302 57.718 70.4084C57.7585 70.5149 57.7764 70.628 57.7708 70.7418C57.7652 70.8549 57.7361 70.9656 57.6853 71.0684C57.6344 71.1705 57.5628 71.2628 57.4746 71.3387C57.6556 70.8989 57.4142 70.4665 56.72 70.3656C56.2744 70.3124 55.8219 70.3632 55.4014 70.5142C54.9808 70.6647 54.6049 70.9106 54.3057 71.2304C53.951 71.6775 53.9209 72.1166 54.1698 72.3692Z" fill="black"/>
<path d="M43.9157 44.823C45.9906 44.7798 47.6882 46.6104 47.7561 48.9023C47.8241 51.1942 46.1566 53.0825 44.0817 53.1186C42.0068 53.1546 40.3092 51.3312 40.2413 49.0392C40.1734 46.7473 41.8408 44.8591 43.9157 44.823Z" fill="#F06868"/>
<path opacity="0.1" d="M43.9157 44.823C45.9906 44.7798 47.6882 46.6104 47.7561 48.9023C47.8241 51.1942 46.1566 53.0825 44.0817 53.1186C42.0068 53.1546 40.3092 51.3312 40.2413 49.0392C40.1734 46.7473 41.8408 44.8591 43.9157 44.823Z" fill="black"/>
<path opacity="0.25" d="M42.8745 51.6701C44.044 52.326 45.8246 51.6701 46.4282 49.7674C47.0319 47.8647 45.3418 45.3133 43.5234 45.8611C44.1091 46.2215 44.5849 46.7232 44.9029 47.3154C45.2208 47.9076 45.3696 48.5694 45.3342 49.2341C45.1833 50.8197 44.044 51.7711 42.8745 51.6701Z" fill="black"/>
</svg>
