<svg width="40" height="40" viewBox="0 0 40 40" fill="none" xmlns="http://www.w3.org/2000/svg">
<path d="M35.7143 0H4.28571C3.14907 0 2.05898 0.44816 1.25526 1.24589C0.451529 2.04362 0 3.12557 0 4.25373L0 35.4478C0 36.5759 0.451529 37.6579 1.25526 38.4556C2.05898 39.2533 3.14907 39.7015 4.28571 39.7015H16.5402V26.2039H10.9152V19.8507H16.5402V15.0086C16.5402 9.50089 19.8438 6.45858 24.9036 6.45858C27.3268 6.45858 29.8607 6.8875 29.8607 6.8875V12.2933H27.0688C24.3179 12.2933 23.4598 13.9877 23.4598 15.7255V19.8507H29.6009L28.6188 26.2039H23.4598V39.7015H35.7143C36.8509 39.7015 37.941 39.2533 38.7447 38.4556C39.5485 37.6579 40 36.5759 40 35.4478V4.25373C40 3.12557 39.5485 2.04362 38.7447 1.24589C37.941 0.44816 36.8509 0 35.7143 0Z" fill="#44B564"/>
</svg>
