<svg width="100" height="100" viewBox="0 0 100 100" fill="none" xmlns="http://www.w3.org/2000/svg">
<path d="M67.8427 30.5781C64.9193 12.6135 58.0242 0 50 0C41.9758 0 35.0806 12.6135 32.1573 30.5781H67.8427ZM30.6452 49.8906C30.6452 54.3566 30.8871 58.6416 31.3105 62.7656H68.6693C69.0927 58.6416 69.3347 54.3566 69.3347 49.8906C69.3347 45.4246 69.0927 41.1396 68.6693 37.0156H31.3105C30.8871 41.1396 30.6452 45.4246 30.6452 49.8906ZM96.1089 30.5781C90.3427 16.9186 78.6693 6.35703 64.254 2.09219C69.1734 8.8918 72.5605 19.1314 74.3347 30.5781H96.1089ZM35.7258 2.09219C21.3306 6.35703 9.6371 16.9186 3.89113 30.5781H25.6653C27.4194 19.1314 30.8064 8.8918 35.7258 2.09219ZM98.2661 37.0156H75.1411C75.5645 41.2402 75.8064 45.5654 75.8064 49.8906C75.8064 54.2158 75.5645 58.541 75.1411 62.7656H98.246C99.3548 58.6416 99.9798 54.3566 99.9798 49.8906C99.9798 45.4246 99.3548 41.1396 98.2661 37.0156ZM24.1935 49.8906C24.1935 45.5654 24.4355 41.2402 24.8589 37.0156H1.73387C0.645161 41.1396 0 45.4246 0 49.8906C0 54.3566 0.645161 58.6416 1.73387 62.7656H24.8387C24.4355 58.541 24.1935 54.2158 24.1935 49.8906ZM32.1573 69.2031C35.0806 87.1678 41.9758 99.7812 50 99.7812C58.0242 99.7812 64.9193 87.1678 67.8427 69.2031H32.1573ZM64.2742 97.6891C78.6693 93.4242 90.3629 82.8627 96.129 69.2031H74.3548C72.5806 80.6498 69.1935 90.8895 64.2742 97.6891ZM3.89113 69.2031C9.65726 82.8627 21.3306 93.4242 35.746 97.6891C30.8266 90.8895 27.4395 80.6498 25.6653 69.2031H3.89113Z" fill="#44B564"/>
</svg>
