<svg width="40" height="40" viewBox="0 0 40 40" fill="none" xmlns="http://www.w3.org/2000/svg">
<path d="M20 15.1846C19.0581 15.1849 18.1375 15.4636 17.3546 15.9853C16.5716 16.507 15.9615 17.2483 15.6013 18.1156C15.2411 18.9828 15.1471 19.937 15.331 20.8575C15.515 21.778 15.9687 22.6235 16.6348 23.2871C17.3009 23.9506 18.1495 24.4025 19.0733 24.5855C19.9971 24.7684 20.9546 24.6743 21.8247 24.3151C22.6949 23.9558 23.4386 23.3475 23.9618 22.5671C24.485 21.7867 24.7643 20.8691 24.7643 19.9306C24.7633 18.6718 24.261 17.465 23.3677 16.5751C22.4744 15.6852 21.2631 15.1851 20 15.1846V15.1846ZM31.1348 11.5366C30.8924 10.9243 30.5263 10.3682 30.0592 9.90273C29.5921 9.43729 29.0341 9.07244 28.4196 8.83084C26.5446 8.09323 22.0804 8.25872 20 8.25872C17.9196 8.25872 13.4598 8.087 11.5795 8.83084C10.965 9.07244 10.407 9.43729 9.93992 9.90273C9.47285 10.3682 9.10674 10.9243 8.86429 11.5366C8.125 13.4051 8.29018 17.8583 8.29018 19.9297C8.29018 22.001 8.125 26.4489 8.86786 28.3236C9.11031 28.9359 9.47642 29.492 9.94349 29.9575C10.4106 30.4229 10.9686 30.7878 11.583 31.0294C13.458 31.767 17.9223 31.6015 20.0036 31.6015C22.0848 31.6015 26.5429 31.7732 28.4232 31.0294C29.0376 30.7878 29.5957 30.4229 30.0628 29.9575C30.5298 29.492 30.8959 28.9359 31.1384 28.3236C31.8839 26.4551 31.7125 22.0019 31.7125 19.9306C31.7125 17.8592 31.8839 13.4122 31.1384 11.5375L31.1348 11.5366ZM20 27.2266C18.552 27.2266 17.1364 26.7987 15.9324 25.997C14.7284 25.1953 13.79 24.0558 13.2359 22.7226C12.6817 21.3894 12.5368 19.9225 12.8193 18.5072C13.1017 17.0919 13.799 15.7919 14.823 14.7715C15.8469 13.7511 17.1514 13.0563 18.5717 12.7747C19.9919 12.4932 21.464 12.6377 22.8018 13.1899C24.1396 13.7421 25.2831 14.6773 26.0875 15.8771C26.892 17.0769 27.3214 18.4875 27.3214 19.9306C27.3226 20.889 27.134 21.8383 26.7665 22.724C26.399 23.6097 25.8597 24.4145 25.1797 25.0922C24.4996 25.77 23.692 26.3073 22.8032 26.6736C21.9144 27.0398 20.9618 27.2277 20 27.2266V27.2266ZM27.6232 14.0315C27.2852 14.0316 26.9547 13.9319 26.6735 13.7449C26.3924 13.5579 26.1732 13.292 26.0437 12.9808C25.9143 12.6696 25.8803 12.3272 25.9461 11.9968C26.012 11.6664 26.1746 11.3628 26.4136 11.1246C26.6526 10.8863 26.9571 10.724 27.2886 10.6583C27.6201 10.5925 27.9638 10.6262 28.2761 10.755C28.5884 10.8839 28.8554 11.1022 29.0432 11.3822C29.231 11.6623 29.3313 11.9916 29.3313 12.3285C29.3322 12.5522 29.2888 12.7738 29.2036 12.9808C29.1184 13.1877 28.993 13.3759 28.8346 13.5344C28.6763 13.693 28.488 13.8188 28.2808 13.9047C28.0735 13.9906 27.8513 14.0349 27.6268 14.035L27.6232 14.0315ZM35.7143 0H4.28571C3.14907 0 2.05898 0.449962 1.25526 1.2509C0.451529 2.05183 0 3.13814 0 4.27083L0 35.5903C0 36.723 0.451529 37.8093 1.25526 38.6102C2.05898 39.4111 3.14907 39.8611 4.28571 39.8611H35.7143C36.8509 39.8611 37.941 39.4111 38.7447 38.6102C39.5485 37.8093 40 36.723 40 35.5903V4.27083C40 3.13814 39.5485 2.05183 38.7447 1.2509C37.941 0.449962 36.8509 0 35.7143 0V0ZM34.1857 25.8029C34.0705 28.0834 33.5482 30.104 31.8777 31.7643C30.2071 33.4246 28.1813 33.9558 25.8955 34.0643C23.5375 34.1969 16.4679 34.1969 14.1098 34.0643C11.8214 33.9496 9.80089 33.4282 8.12768 31.7643C6.45446 30.1005 5.92857 28.0789 5.81964 25.8029C5.68661 23.4522 5.68661 16.4062 5.81964 14.0582C5.93482 11.7777 6.45089 9.75707 8.12768 8.09679C9.80446 6.4365 11.8304 5.91154 14.1098 5.80299C16.4679 5.67042 23.5375 5.67042 25.8955 5.80299C28.1839 5.91777 30.2107 6.43917 31.8777 8.10302C33.5446 9.76686 34.0768 11.7884 34.1857 14.0688C34.3188 16.4107 34.3188 23.4504 34.1857 25.8029Z" fill="#44B564"/>
</svg>
