<svg width="25" height="32" viewBox="0 0 25 32" fill="none" xmlns="http://www.w3.org/2000/svg">
<path d="M18.5724 9.28622C18.5724 14.4149 14.4149 18.5724 9.28622 18.5724C4.15758 18.5724 0 14.4149 0 9.28622C0 4.15758 4.15758 0 9.28622 0C14.4149 0 18.5724 4.15758 18.5724 9.28622ZM2.10956 9.28622C2.10956 13.2498 5.32266 16.4629 9.28622 16.4629C13.2498 16.4629 16.4629 13.2498 16.4629 9.28622C16.4629 5.32266 13.2498 2.10956 9.28622 2.10956C5.32266 2.10956 2.10956 5.32266 2.10956 9.28622Z" fill="#455A64"/>
<ellipse cx="18.2392" cy="23.1256" rx="1.64756" ry="8.85622" transform="rotate(-30.8633 18.2392 23.1256)" fill="#455A64"/>
<path d="M14.7706 8.83671C14.8851 8.83671 14.9783 8.74387 14.9735 8.62951C14.9458 7.96872 14.7857 7.31946 14.5019 6.7205C14.1885 6.05904 13.7322 5.47544 13.1658 5.01185C12.5993 4.54825 11.937 4.21625 11.2267 4.0398C10.5835 3.88003 9.91536 3.85143 9.26212 3.95487C9.14907 3.97278 9.0765 4.08254 9.09912 4.19474C9.12175 4.30695 9.23101 4.37908 9.34414 4.36161C9.93712 4.27003 10.5431 4.29713 11.1268 4.4421C11.7775 4.60374 12.3843 4.90791 12.9032 5.33262C13.4221 5.75733 13.8402 6.29199 14.1273 6.89798C14.3848 7.44146 14.5311 8.03014 14.5586 8.62952C14.5638 8.74386 14.6561 8.83671 14.7706 8.83671Z" fill="#455A64"/>
</svg>
