<svg width="40" height="40" viewBox="0 0 40 40" fill="none" xmlns="http://www.w3.org/2000/svg">
<path d="M35.7143 0H4.28571C1.91964 0 0 1.91626 0 4.27817V35.6514C0 38.0133 1.91964 39.9296 4.28571 39.9296H35.7143C38.0804 39.9296 40 38.0133 40 35.6514V4.27817C40 1.91626 38.0804 0 35.7143 0ZM31.3482 14.1536C31.3661 14.4032 31.3661 14.6616 31.3661 14.9112C31.3661 22.6386 25.4732 31.5426 14.7054 31.5426C11.3839 31.5426 8.30357 30.58 5.71429 28.9222C6.1875 28.9757 6.64286 28.9935 7.125 28.9935C9.86607 28.9935 12.3839 28.0666 14.3929 26.4979C11.8214 26.4444 9.66071 24.7599 8.91964 22.4426C9.82143 22.5763 10.6339 22.5763 11.5625 22.3356C8.88393 21.7919 6.875 19.4389 6.875 16.5957V16.5244C7.65179 16.9612 8.5625 17.2285 9.51786 17.2642C8.71467 16.7309 8.05623 16.0074 7.60131 15.1582C7.14639 14.3091 6.90914 13.3607 6.91071 12.3978C6.91071 11.3104 7.19643 10.3122 7.70536 9.44762C10.5893 12.9949 14.9196 15.3123 19.7768 15.5618C18.9464 11.5956 21.9196 8.37808 25.4911 8.37808C27.1786 8.37808 28.6964 9.0822 29.7679 10.223C31.0893 9.97348 32.3571 9.48327 33.4821 8.81481C33.0446 10.1696 32.125 11.3104 30.9107 12.0323C32.0893 11.9076 33.2321 11.5778 34.2857 11.1232C33.4911 12.2908 32.4911 13.3247 31.3482 14.1536Z" fill="#44B564"/>
</svg>
